<svg width="516" height="372" viewBox="0 0 516 372" fill="none" xmlns="http://www.w3.org/2000/svg">
<mask id="path-1-outside-1" maskUnits="userSpaceOnUse" x="0" y="0" width="516" height="372" fill="black">
<rect fill="white" width="516" height="372"/>
<path d="M63.5681 10.5203H53.5841L48.7361 35.2539H37.6001L42.4481 10.5203H32.7521L34.4801 1.76545H65.2961L63.5681 10.5203ZM83.7198 1.76545C88.1998 1.76545 91.6718 2.73821 94.1358 4.68373C96.5998 6.62926 97.8318 9.35618 97.8318 12.8645C97.8318 15.6711 97.1278 18.1429 95.7198 20.2798C94.3438 22.4167 92.3598 24.0752 89.7678 25.2552C87.2078 26.4353 84.2318 27.0253 80.8398 27.0253H75.0318L73.3998 35.2539H62.0718L68.7918 1.76545H83.7198ZM81.4158 18.3183C82.9838 18.3183 84.1998 17.9356 85.0638 17.1702C85.9278 16.3728 86.3598 15.2725 86.3598 13.8691C86.3598 11.6047 84.9518 10.4725 82.1358 10.4725H78.3438L76.7598 18.3183H81.4158ZM137.085 1.76545L118.509 27.3602C116.365 30.2626 114.045 32.4473 111.549 33.9144C109.053 35.3815 106.445 36.1151 103.725 36.1151C101.549 36.1151 99.3249 35.6367 97.0529 34.6799L100.653 26.7861C101.709 27.0732 102.669 27.2167 103.533 27.2167C104.557 27.2167 105.469 27.0094 106.269 26.5948C107.101 26.1802 107.885 25.5582 108.621 24.729L100.605 1.76545H112.317L116.157 15.6871L125.901 1.76545H137.085ZM139.485 1.76545H168.621L166.893 10.2811H148.893L148.125 14.1562H156.141C159.629 14.1562 162.317 14.9535 164.205 16.5482C166.125 18.1429 167.085 20.3914 167.085 23.2938C167.085 25.7177 166.413 27.8386 165.069 29.6566C163.725 31.4426 161.805 32.83 159.309 33.8187C156.813 34.7755 153.869 35.2539 150.477 35.2539H132.765L139.485 1.76545ZM151.293 27.3602C152.573 27.3602 153.581 27.0732 154.317 26.4991C155.085 25.925 155.469 25.1596 155.469 24.2027C155.469 22.7356 154.429 22.0021 152.349 22.0021H146.541L145.485 27.3602H151.293ZM193.545 29.4174H180.729L177.369 35.2539H165.417L186.825 1.76545H197.961L205.929 35.2539H194.649L193.545 29.4174ZM191.961 21.2845L190.329 12.721L185.385 21.2845H191.961ZM244.829 1.76545C249.309 1.76545 252.781 2.73821 255.245 4.68373C257.709 6.62926 258.941 9.35618 258.941 12.8645C258.941 15.6711 258.237 18.1429 256.829 20.2798C255.453 22.4167 253.469 24.0752 250.877 25.2552C248.317 26.4353 245.341 27.0253 241.949 27.0253H236.141L234.509 35.2539H223.181L229.901 1.76545H244.829ZM242.525 18.3183C244.093 18.3183 245.309 17.9356 246.173 17.1702C247.037 16.3728 247.469 15.2725 247.469 13.8691C247.469 11.6047 246.061 10.4725 243.245 10.4725H239.453L237.869 18.3183H242.525ZM294.144 12.7688C294.144 15.7349 293.344 18.3343 291.744 20.5668C290.176 22.7675 287.952 24.4101 285.072 25.4944L290.688 35.2539H278.928L274.176 26.834H271.392L269.712 35.2539H258.384L265.104 1.76545H280.176C284.592 1.76545 288.016 2.73821 290.448 4.68373C292.912 6.59736 294.144 9.29239 294.144 12.7688ZM282.672 13.8691C282.672 11.6047 281.264 10.4725 278.448 10.4725H274.656L273.072 18.3183H277.728C279.296 18.3183 280.512 17.9356 281.376 17.1702C282.24 16.3728 282.672 15.2725 282.672 13.8691ZM318.63 29.4174H305.814L302.454 35.2539H290.502L311.91 1.76545H323.046L331.014 35.2539H319.734L318.63 29.4174ZM317.046 21.2845L315.414 12.721L310.47 21.2845H317.046ZM358.129 17.6007H367.969L365.089 32.0486C363.297 33.3244 361.233 34.3131 358.897 35.0147C356.593 35.6845 354.113 36.0194 351.457 36.0194C348.033 36.0194 345.009 35.3975 342.385 34.1536C339.793 32.8779 337.777 31.1077 336.337 28.8433C334.929 26.5788 334.225 23.9795 334.225 21.0453C334.225 17.1542 335.137 13.6937 336.961 10.6638C338.785 7.63391 341.329 5.27377 344.593 3.5834C347.857 1.86113 351.601 1 355.825 1C362.801 1 367.889 3.18472 371.089 7.55417L362.977 13.8213C361.921 12.4818 360.785 11.5409 359.569 10.9987C358.353 10.4246 356.929 10.1376 355.297 10.1376C353.345 10.1376 351.633 10.5681 350.161 11.4293C348.721 12.2904 347.601 13.5024 346.801 15.0652C346.033 16.5961 345.649 18.3502 345.649 20.3276C345.649 22.3051 346.305 23.8998 347.617 25.1117C348.929 26.2918 350.737 26.8818 353.041 26.8818C354.193 26.8818 355.297 26.7224 356.353 26.4034L358.129 17.6007ZM416.188 1.76545L409.564 35.2539H399.244L402.22 19.9928L392.764 32.24H387.772L382.588 20.1841L379.564 35.2539H369.244L375.964 1.76545H385.18L392.476 19.5622L406.54 1.76545H416.188ZM439.521 29.4174H426.705L423.345 35.2539H411.393L432.801 1.76545H443.937L451.905 35.2539H440.625L439.521 29.4174ZM437.937 21.2845L436.305 12.721L431.361 21.2845H437.937ZM471.127 17.3615H485.527L483.895 25.4944H469.495L471.127 17.3615ZM43.808 49.6062L37.088 83.0947H25.952L30.896 58.361H23.264L21.776 64.9152C20.688 69.763 19.504 73.5265 18.224 76.2056C16.944 78.8847 15.392 80.8142 13.568 81.9943C11.776 83.1425 9.472 83.7166 6.656 83.7166C4.896 83.7166 3.344 83.5093 2 83.0947L4.4 74.0527C4.784 74.1484 5.184 74.1963 5.6 74.1963C6.624 74.1963 7.504 73.8295 8.24 73.0959C9.008 72.3624 9.712 71.1664 10.352 69.5079C11.024 67.8494 11.696 65.569 12.368 62.6667L15.44 49.6062H43.808ZM83.3428 49.6062L64.7668 75.2009C62.6227 78.1033 60.3027 80.288 57.8068 81.7551C55.3108 83.2222 52.7028 83.9558 49.9827 83.9558C47.8068 83.9558 45.5827 83.4774 43.3107 82.5206L46.9108 74.6268C47.9668 74.9139 48.9268 75.0574 49.7907 75.0574C50.8148 75.0574 51.7268 74.8501 52.5268 74.4355C53.3588 74.0209 54.1427 73.3989 54.8787 72.5697L46.8628 49.6062H58.5748L62.4147 63.5278L72.1588 49.6062H83.3428ZM117.166 49.6062L110.446 83.0947H99.3099L101.422 72.6175C99.4699 73.1278 97.6299 73.383 95.9019 73.383C91.5499 73.383 88.2219 72.474 85.9179 70.6561C83.6459 68.8062 82.5099 66.1909 82.5099 62.8102C82.5099 61.7896 82.6379 60.6095 82.8939 59.27L84.8139 49.6062H95.9499L94.0779 58.8872C93.9179 59.7803 93.8379 60.5138 93.8379 61.0879C93.8379 62.268 94.1419 63.1291 94.7499 63.6713C95.3899 64.1816 96.3659 64.4368 97.6779 64.4368C99.8539 64.4368 101.726 64.07 103.294 63.3364L106.03 49.6062H117.166ZM169.998 49.6062L163.278 83.0947H116.382L123.102 49.6062H134.238L129.39 74.3398H136.158L141.006 49.6062H152.142L147.294 74.3398H154.014L158.862 49.6062H169.998ZM185.338 58.1218L184.57 62.0447H198.778L197.146 70.1777H182.89L182.026 74.579H198.874L197.146 83.0947H169.21L175.93 49.6062H203.242L201.514 58.1218H185.338ZM217.87 58.1218L217.102 62.0447H231.309L229.678 70.1777H215.422L214.557 74.579H231.406L229.678 83.0947H201.742L208.462 49.6062H235.773L234.046 58.1218H217.87ZM270.071 49.6062C274.551 49.6062 278.023 50.5789 280.487 52.5244C282.951 54.47 284.183 57.1969 284.183 60.7052C284.183 63.5119 283.479 65.9836 282.071 68.1205C280.695 70.2574 278.711 71.9159 276.119 73.0959C273.559 74.276 270.583 74.866 267.191 74.866H261.383L259.751 83.0947H248.423L255.143 49.6062H270.071ZM267.767 66.159C269.335 66.159 270.551 65.7763 271.415 65.0109C272.279 64.2135 272.711 63.1132 272.711 61.7099C272.711 59.4454 271.303 58.3132 268.487 58.3132H264.695L263.111 66.159H267.767ZM299.995 58.1218L299.227 62.0447H313.435L311.802 70.1777H297.547L296.682 74.579H313.53L311.802 83.0947H283.866L290.586 49.6062H317.898L316.171 58.1218H299.995ZM370.014 49.6062L363.294 83.0947H316.398L323.118 49.6062H334.254L329.406 74.3398H336.174L341.022 49.6062H352.158L347.31 74.3398H354.03L358.878 49.6062H370.014ZM385.354 58.1218L384.586 62.0447H398.794L397.162 70.1777H382.906L382.042 74.579H398.89L397.162 83.0947H369.226L375.946 49.6062H403.258L401.53 58.1218H385.354ZM441.597 49.6062L434.877 83.0947H423.549L426.045 70.7517H415.581L413.085 83.0947H401.757L408.477 49.6062H419.805L417.405 61.4706H427.869L430.269 49.6062H441.597ZM447.571 49.6062H458.707L455.107 67.0202L470.131 49.6062H480.931L474.211 83.0947H463.075L466.723 65.7285L451.699 83.0947H440.851L447.571 49.6062ZM496.307 58.1218L495.539 62.0447H509.747L508.115 70.1777H493.859L492.995 74.579H509.843L508.115 83.0947H480.179L486.899 49.6062H514.211L512.483 58.1218H496.307ZM63.5681 106.202H53.5841L48.7361 130.935H37.6001L42.4481 106.202H32.7521L34.4801 97.4469H65.2961L63.5681 106.202ZM83.7198 97.4469C88.1998 97.4469 91.6718 98.4196 94.1358 100.365C96.5998 102.311 97.8318 105.038 97.8318 108.546C97.8318 111.353 97.1278 113.824 95.7198 115.961C94.3438 118.098 92.3598 119.757 89.7678 120.937C87.2078 122.117 84.2318 122.707 80.8398 122.707H75.0318L73.3998 130.935H62.0718L68.7918 97.4469H83.7198ZM81.4158 114C82.9838 114 84.1998 113.617 85.0638 112.852C85.9278 112.054 86.3598 110.954 86.3598 109.551C86.3598 107.286 84.9518 106.154 82.1358 106.154H78.3438L76.7598 114H81.4158ZM137.085 97.4469L118.509 123.042C116.365 125.944 114.045 128.129 111.549 129.596C109.053 131.063 106.445 131.796 103.725 131.796C101.549 131.796 99.3249 131.318 97.0529 130.361L100.653 122.468C101.709 122.755 102.669 122.898 103.533 122.898C104.557 122.898 105.469 122.691 106.269 122.276C107.101 121.862 107.885 121.24 108.621 120.41L100.605 97.4469H112.317L116.157 111.369L125.901 97.4469H137.085ZM139.485 97.4469H168.621L166.893 105.963H148.893L148.125 109.838H156.141C159.629 109.838 162.317 110.635 164.205 112.23C166.125 113.824 167.085 116.073 167.085 118.975C167.085 121.399 166.413 123.52 165.069 125.338C163.725 127.124 161.805 128.511 159.309 129.5C156.813 130.457 153.869 130.935 150.477 130.935H132.765L139.485 97.4469ZM151.293 123.042C152.573 123.042 153.581 122.755 154.317 122.181C155.085 121.606 155.469 120.841 155.469 119.884C155.469 118.417 154.429 117.683 152.349 117.683H146.541L145.485 123.042H151.293ZM193.545 125.099H180.729L177.369 130.935H165.417L186.825 97.4469H197.961L205.929 130.935H194.649L193.545 125.099ZM191.961 116.966L190.329 108.402L185.385 116.966H191.961ZM244.829 97.4469C249.309 97.4469 252.781 98.4196 255.245 100.365C257.709 102.311 258.941 105.038 258.941 108.546C258.941 111.353 258.237 113.824 256.829 115.961C255.453 118.098 253.469 119.757 250.877 120.937C248.317 122.117 245.341 122.707 241.949 122.707H236.141L234.509 130.935H223.181L229.901 97.4469H244.829ZM242.525 114C244.093 114 245.309 113.617 246.173 112.852C247.037 112.054 247.469 110.954 247.469 109.551C247.469 107.286 246.061 106.154 243.245 106.154H239.453L237.869 114H242.525ZM294.144 108.45C294.144 111.416 293.344 114.016 291.744 116.248C290.176 118.449 287.952 120.091 285.072 121.176L290.688 130.935H278.928L274.176 122.515H271.392L269.712 130.935H258.384L265.104 97.4469H280.176C284.592 97.4469 288.016 98.4196 290.448 100.365C292.912 102.279 294.144 104.974 294.144 108.45ZM282.672 109.551C282.672 107.286 281.264 106.154 278.448 106.154H274.656L273.072 114H277.728C279.296 114 280.512 113.617 281.376 112.852C282.24 112.054 282.672 110.954 282.672 109.551ZM318.63 125.099H305.814L302.454 130.935H290.502L311.91 97.4469H323.046L331.014 130.935H319.734L318.63 125.099ZM317.046 116.966L315.414 108.402L310.47 116.966H317.046ZM358.129 113.282H367.969L365.089 127.73C363.297 129.006 361.233 129.994 358.897 130.696C356.593 131.366 354.113 131.701 351.457 131.701C348.033 131.701 345.009 131.079 342.385 129.835C339.793 128.559 337.777 126.789 336.337 124.525C334.929 122.26 334.225 119.661 334.225 116.727C334.225 112.836 335.137 109.375 336.961 106.345C338.785 103.315 341.329 100.955 344.593 99.2648C347.857 97.5425 351.601 96.6814 355.825 96.6814C362.801 96.6814 367.889 98.8661 371.089 103.236L362.977 109.503C361.921 108.163 360.785 107.222 359.569 106.68C358.353 106.106 356.929 105.819 355.297 105.819C353.345 105.819 351.633 106.25 350.161 107.111C348.721 107.972 347.601 109.184 346.801 110.747C346.033 112.277 345.649 114.032 345.649 116.009C345.649 117.986 346.305 119.581 347.617 120.793C348.929 121.973 350.737 122.563 353.041 122.563C354.193 122.563 355.297 122.404 356.353 122.085L358.129 113.282ZM416.188 97.4469L409.564 130.935H399.244L402.22 115.674L392.764 127.921H387.772L382.588 115.866L379.564 130.935H369.244L375.964 97.4469H385.18L392.476 115.244L406.54 97.4469H416.188ZM439.521 125.099H426.705L423.345 130.935H411.393L432.801 97.4469H443.937L451.905 130.935H440.625L439.521 125.099ZM437.937 116.966L436.305 108.402L431.361 116.966H437.937ZM471.127 113.043H485.527L483.895 121.176H469.495L471.127 113.043ZM43.808 145.288L37.088 178.776H25.952L30.896 154.042H23.264L21.776 160.597C20.688 165.444 19.504 169.208 18.224 171.887C16.944 174.566 15.392 176.496 13.568 177.676C11.776 178.824 9.472 179.398 6.656 179.398C4.896 179.398 3.344 179.191 2 178.776L4.4 169.734C4.784 169.83 5.184 169.878 5.6 169.878C6.624 169.878 7.504 169.511 8.24 168.777C9.008 168.044 9.712 166.848 10.352 165.189C11.024 163.531 11.696 161.25 12.368 158.348L15.44 145.288H43.808ZM83.3428 145.288L64.7668 170.882C62.6227 173.785 60.3027 175.969 57.8068 177.437C55.3108 178.904 52.7028 179.637 49.9827 179.637C47.8068 179.637 45.5827 179.159 43.3107 178.202L46.9108 170.308C47.9668 170.595 48.9268 170.739 49.7907 170.739C50.8148 170.739 51.7268 170.532 52.5268 170.117C53.3588 169.702 54.1427 169.08 54.8787 168.251L46.8628 145.288H58.5748L62.4147 159.209L72.1588 145.288H83.3428ZM117.166 145.288L110.446 178.776H99.3099L101.422 168.299C99.4699 168.809 97.6299 169.064 95.9019 169.064C91.5499 169.064 88.2219 168.155 85.9179 166.337C83.6459 164.488 82.5099 161.872 82.5099 158.492C82.5099 157.471 82.6379 156.291 82.8939 154.951L84.8139 145.288H95.9499L94.0779 154.569C93.9179 155.462 93.8379 156.195 93.8379 156.769C93.8379 157.949 94.1419 158.811 94.7499 159.353C95.3899 159.863 96.3659 160.118 97.6779 160.118C99.8539 160.118 101.726 159.751 103.294 159.018L106.03 145.288H117.166ZM169.998 145.288L163.278 178.776H116.382L123.102 145.288H134.238L129.39 170.021H136.158L141.006 145.288H152.142L147.294 170.021H154.014L158.862 145.288H169.998ZM185.338 153.803L184.57 157.726H198.778L197.146 165.859H182.89L182.026 170.26H198.874L197.146 178.776H169.21L175.93 145.288H203.242L201.514 153.803H185.338ZM217.87 153.803L217.102 157.726H231.309L229.678 165.859H215.422L214.557 170.26H231.406L229.678 178.776H201.742L208.462 145.288H235.773L234.046 153.803H217.87ZM270.071 145.288C274.551 145.288 278.023 146.26 280.487 148.206C282.951 150.151 284.183 152.878 284.183 156.387C284.183 159.193 283.479 161.665 282.071 163.802C280.695 165.939 278.711 167.597 276.119 168.777C273.559 169.957 270.583 170.547 267.191 170.547H261.383L259.751 178.776H248.423L255.143 145.288H270.071ZM267.767 161.84C269.335 161.84 270.551 161.458 271.415 160.692C272.279 159.895 272.711 158.795 272.711 157.391C272.711 155.127 271.303 153.995 268.487 153.995H264.695L263.111 161.84H267.767ZM299.995 153.803L299.227 157.726H313.435L311.802 165.859H297.547L296.682 170.26H313.53L311.802 178.776H283.866L290.586 145.288H317.898L316.171 153.803H299.995ZM370.014 145.288L363.294 178.776H316.398L323.118 145.288H334.254L329.406 170.021H336.174L341.022 145.288H352.158L347.31 170.021H354.03L358.878 145.288H370.014ZM385.354 153.803L384.586 157.726H398.794L397.162 165.859H382.906L382.042 170.26H398.89L397.162 178.776H369.226L375.946 145.288H403.258L401.53 153.803H385.354ZM441.597 145.288L434.877 178.776H423.549L426.045 166.433H415.581L413.085 178.776H401.757L408.477 145.288H419.805L417.405 157.152H427.869L430.269 145.288H441.597ZM447.571 145.288H458.707L455.107 162.702L470.131 145.288H480.931L474.211 178.776H463.075L466.723 161.41L451.699 178.776H440.851L447.571 145.288ZM496.307 153.803L495.539 157.726H509.747L508.115 165.859H493.859L492.995 170.26H509.843L508.115 178.776H480.179L486.899 145.288H514.211L512.483 153.803H496.307ZM63.5681 201.883H53.5841L48.7361 226.617H37.6001L42.4481 201.883H32.7521L34.4801 193.128H65.2961L63.5681 201.883ZM83.7198 193.128C88.1998 193.128 91.6718 194.101 94.1358 196.047C96.5998 197.992 97.8318 200.719 97.8318 204.227C97.8318 207.034 97.1278 209.506 95.7198 211.643C94.3438 213.779 92.3598 215.438 89.7678 216.618C87.2078 217.798 84.2318 218.388 80.8398 218.388H75.0318L73.3998 226.617H62.0718L68.7918 193.128H83.7198ZM81.4158 209.681C82.9838 209.681 84.1998 209.298 85.0638 208.533C85.9278 207.736 86.3598 206.635 86.3598 205.232C86.3598 202.968 84.9518 201.835 82.1358 201.835H78.3438L76.7598 209.681H81.4158ZM137.085 193.128L118.509 218.723C116.365 221.625 114.045 223.81 111.549 225.277C109.053 226.744 106.445 227.478 103.725 227.478C101.549 227.478 99.3249 226.999 97.0529 226.043L100.653 218.149C101.709 218.436 102.669 218.58 103.533 218.58C104.557 218.58 105.469 218.372 106.269 217.958C107.101 217.543 107.885 216.921 108.621 216.092L100.605 193.128H112.317L116.157 207.05L125.901 193.128H137.085ZM139.485 193.128H168.621L166.893 201.644H148.893L148.125 205.519H156.141C159.629 205.519 162.317 206.316 164.205 207.911C166.125 209.506 167.085 211.754 167.085 214.657C167.085 217.081 166.413 219.201 165.069 221.019C163.725 222.805 161.805 224.193 159.309 225.182C156.813 226.138 153.869 226.617 150.477 226.617H132.765L139.485 193.128ZM151.293 218.723C152.573 218.723 153.581 218.436 154.317 217.862C155.085 217.288 155.469 216.522 155.469 215.566C155.469 214.098 154.429 213.365 152.349 213.365H146.541L145.485 218.723H151.293ZM193.545 220.78H180.729L177.369 226.617H165.417L186.825 193.128H197.961L205.929 226.617H194.649L193.545 220.78ZM191.961 212.647L190.329 204.084L185.385 212.647H191.961ZM244.829 193.128C249.309 193.128 252.781 194.101 255.245 196.047C257.709 197.992 258.941 200.719 258.941 204.227C258.941 207.034 258.237 209.506 256.829 211.643C255.453 213.779 253.469 215.438 250.877 216.618C248.317 217.798 245.341 218.388 241.949 218.388H236.141L234.509 226.617H223.181L229.901 193.128H244.829ZM242.525 209.681C244.093 209.681 245.309 209.298 246.173 208.533C247.037 207.736 247.469 206.635 247.469 205.232C247.469 202.968 246.061 201.835 243.245 201.835H239.453L237.869 209.681H242.525ZM294.144 204.132C294.144 207.098 293.344 209.697 291.744 211.93C290.176 214.13 287.952 215.773 285.072 216.857L290.688 226.617H278.928L274.176 218.197H271.392L269.712 226.617H258.384L265.104 193.128H280.176C284.592 193.128 288.016 194.101 290.448 196.047C292.912 197.96 294.144 200.655 294.144 204.132ZM282.672 205.232C282.672 202.968 281.264 201.835 278.448 201.835H274.656L273.072 209.681H277.728C279.296 209.681 280.512 209.298 281.376 208.533C282.24 207.736 282.672 206.635 282.672 205.232ZM318.63 220.78H305.814L302.454 226.617H290.502L311.91 193.128H323.046L331.014 226.617H319.734L318.63 220.78ZM317.046 212.647L315.414 204.084L310.47 212.647H317.046ZM358.129 208.964H367.969L365.089 223.411C363.297 224.687 361.233 225.676 358.897 226.378C356.593 227.047 354.113 227.382 351.457 227.382C348.033 227.382 345.009 226.76 342.385 225.516C339.793 224.241 337.777 222.471 336.337 220.206C334.929 217.942 334.225 215.342 334.225 212.408C334.225 208.517 335.137 205.057 336.961 202.027C338.785 198.997 341.329 196.637 344.593 194.946C347.857 193.224 351.601 192.363 355.825 192.363C362.801 192.363 367.889 194.548 371.089 198.917L362.977 205.184C361.921 203.845 360.785 202.904 359.569 202.362C358.353 201.787 356.929 201.5 355.297 201.5C353.345 201.5 351.633 201.931 350.161 202.792C348.721 203.653 347.601 204.865 346.801 206.428C346.033 207.959 345.649 209.713 345.649 211.69C345.649 213.668 346.305 215.263 347.617 216.475C348.929 217.655 350.737 218.245 353.041 218.245C354.193 218.245 355.297 218.085 356.353 217.766L358.129 208.964ZM416.188 193.128L409.564 226.617H399.244L402.22 211.356L392.764 223.603H387.772L382.588 211.547L379.564 226.617H369.244L375.964 193.128H385.18L392.476 210.925L406.54 193.128H416.188ZM439.521 220.78H426.705L423.345 226.617H411.393L432.801 193.128H443.937L451.905 226.617H440.625L439.521 220.78ZM437.937 212.647L436.305 204.084L431.361 212.647H437.937ZM471.127 208.724H485.527L483.895 216.857H469.495L471.127 208.724ZM43.808 240.969L37.088 274.457H25.952L30.896 249.724H23.264L21.776 256.278C20.688 261.126 19.504 264.889 18.224 267.568C16.944 270.247 15.392 272.177 13.568 273.357C11.776 274.505 9.472 275.079 6.656 275.079C4.896 275.079 3.344 274.872 2 274.457L4.4 265.416C4.784 265.511 5.184 265.559 5.6 265.559C6.624 265.559 7.504 265.192 8.24 264.459C9.008 263.725 9.712 262.529 10.352 260.871C11.024 259.212 11.696 256.932 12.368 254.029L15.44 240.969H43.808ZM83.3428 240.969L64.7668 266.564C62.6227 269.466 60.3027 271.651 57.8068 273.118C55.3108 274.585 52.7028 275.319 49.9827 275.319C47.8068 275.319 45.5827 274.84 43.3107 273.883L46.9108 265.99C47.9668 266.277 48.9268 266.42 49.7907 266.42C50.8148 266.42 51.7268 266.213 52.5268 265.798C53.3588 265.384 54.1427 264.762 54.8787 263.933L46.8628 240.969H58.5748L62.4147 254.891L72.1588 240.969H83.3428ZM117.166 240.969L110.446 274.457H99.3099L101.422 263.98C99.4699 264.491 97.6299 264.746 95.9019 264.746C91.5499 264.746 88.2219 263.837 85.9179 262.019C83.6459 260.169 82.5099 257.554 82.5099 254.173C82.5099 253.152 82.6379 251.972 82.8939 250.633L84.8139 240.969H95.9499L94.0779 250.25C93.9179 251.143 93.8379 251.877 93.8379 252.451C93.8379 253.631 94.1419 254.492 94.7499 255.034C95.3899 255.544 96.3659 255.8 97.6779 255.8C99.8539 255.8 101.726 255.433 103.294 254.699L106.03 240.969H117.166ZM169.998 240.969L163.278 274.457H116.382L123.102 240.969H134.238L129.39 265.703H136.158L141.006 240.969H152.142L147.294 265.703H154.014L158.862 240.969H169.998ZM185.338 249.485L184.57 253.408H198.778L197.146 261.54H182.89L182.026 265.942H198.874L197.146 274.457H169.21L175.93 240.969H203.242L201.514 249.485H185.338ZM217.87 249.485L217.102 253.408H231.309L229.678 261.54H215.422L214.557 265.942H231.406L229.678 274.457H201.742L208.462 240.969H235.773L234.046 249.485H217.87ZM270.071 240.969C274.551 240.969 278.023 241.942 280.487 243.887C282.951 245.833 284.183 248.56 284.183 252.068C284.183 254.875 283.479 257.346 282.071 259.483C280.695 261.62 278.711 263.279 276.119 264.459C273.559 265.639 270.583 266.229 267.191 266.229H261.383L259.751 274.457H248.423L255.143 240.969H270.071ZM267.767 257.522C269.335 257.522 270.551 257.139 271.415 256.374C272.279 255.576 272.711 254.476 272.711 253.073C272.711 250.808 271.303 249.676 268.487 249.676H264.695L263.111 257.522H267.767ZM299.995 249.485L299.227 253.408H313.435L311.802 261.54H297.547L296.682 265.942H313.53L311.802 274.457H283.866L290.586 240.969H317.898L316.171 249.485H299.995ZM370.014 240.969L363.294 274.457H316.398L323.118 240.969H334.254L329.406 265.703H336.174L341.022 240.969H352.158L347.31 265.703H354.03L358.878 240.969H370.014ZM385.354 249.485L384.586 253.408H398.794L397.162 261.54H382.906L382.042 265.942H398.89L397.162 274.457H369.226L375.946 240.969H403.258L401.53 249.485H385.354ZM441.597 240.969L434.877 274.457H423.549L426.045 262.115H415.581L413.085 274.457H401.757L408.477 240.969H419.805L417.405 252.833H427.869L430.269 240.969H441.597ZM447.571 240.969H458.707L455.107 258.383L470.131 240.969H480.931L474.211 274.457H463.075L466.723 257.091L451.699 274.457H440.851L447.571 240.969ZM496.307 249.485L495.539 253.408H509.747L508.115 261.54H493.859L492.995 265.942H509.843L508.115 274.457H480.179L486.899 240.969H514.211L512.483 249.485H496.307ZM63.5681 297.565H53.5841L48.7361 322.298H37.6001L42.4481 297.565H32.7521L34.4801 288.81H65.2961L63.5681 297.565ZM83.7198 288.81C88.1998 288.81 91.6718 289.782 94.1358 291.728C96.5998 293.673 97.8318 296.4 97.8318 299.909C97.8318 302.715 97.1278 305.187 95.7198 307.324C94.3438 309.461 92.3598 311.119 89.7678 312.299C87.2078 313.48 84.2318 314.07 80.8398 314.07H75.0318L73.3998 322.298H62.0718L68.7918 288.81H83.7198ZM81.4158 305.363C82.9838 305.363 84.1998 304.98 85.0638 304.214C85.9278 303.417 86.3598 302.317 86.3598 300.913C86.3598 298.649 84.9518 297.517 82.1358 297.517H78.3438L76.7598 305.363H81.4158ZM137.085 288.81L118.509 314.404C116.365 317.307 114.045 319.491 111.549 320.959C109.053 322.426 106.445 323.159 103.725 323.159C101.549 323.159 99.3249 322.681 97.0529 321.724L100.653 313.83C101.709 314.117 102.669 314.261 103.533 314.261C104.557 314.261 105.469 314.054 106.269 313.639C107.101 313.224 107.885 312.602 108.621 311.773L100.605 288.81H112.317L116.157 302.731L125.901 288.81H137.085ZM139.485 288.81H168.621L166.893 297.325H148.893L148.125 301.2H156.141C159.629 301.2 162.317 301.998 164.205 303.592C166.125 305.187 167.085 307.436 167.085 310.338C167.085 312.762 166.413 314.883 165.069 316.701C163.725 318.487 161.805 319.874 159.309 320.863C156.813 321.82 153.869 322.298 150.477 322.298H132.765L139.485 288.81ZM151.293 314.404C152.573 314.404 153.581 314.117 154.317 313.543C155.085 312.969 155.469 312.204 155.469 311.247C155.469 309.78 154.429 309.046 152.349 309.046H146.541L145.485 314.404H151.293ZM193.545 316.462H180.729L177.369 322.298H165.417L186.825 288.81H197.961L205.929 322.298H194.649L193.545 316.462ZM191.961 308.329L190.329 299.765L185.385 308.329H191.961ZM244.829 288.81C249.309 288.81 252.781 289.782 255.245 291.728C257.709 293.673 258.941 296.4 258.941 299.909C258.941 302.715 258.237 305.187 256.829 307.324C255.453 309.461 253.469 311.119 250.877 312.299C248.317 313.48 245.341 314.07 241.949 314.07H236.141L234.509 322.298H223.181L229.901 288.81H244.829ZM242.525 305.363C244.093 305.363 245.309 304.98 246.173 304.214C247.037 303.417 247.469 302.317 247.469 300.913C247.469 298.649 246.061 297.517 243.245 297.517H239.453L237.869 305.363H242.525ZM294.144 299.813C294.144 302.779 293.344 305.379 291.744 307.611C290.176 309.812 287.952 311.454 285.072 312.539L290.688 322.298H278.928L274.176 313.878H271.392L269.712 322.298H258.384L265.104 288.81H280.176C284.592 288.81 288.016 289.782 290.448 291.728C292.912 293.642 294.144 296.337 294.144 299.813ZM282.672 300.913C282.672 298.649 281.264 297.517 278.448 297.517H274.656L273.072 305.363H277.728C279.296 305.363 280.512 304.98 281.376 304.214C282.24 303.417 282.672 302.317 282.672 300.913ZM318.63 316.462H305.814L302.454 322.298H290.502L311.91 288.81H323.046L331.014 322.298H319.734L318.63 316.462ZM317.046 308.329L315.414 299.765L310.47 308.329H317.046ZM358.129 304.645H367.969L365.089 319.093C363.297 320.369 361.233 321.357 358.897 322.059C356.593 322.729 354.113 323.064 351.457 323.064C348.033 323.064 345.009 322.442 342.385 321.198C339.793 319.922 337.777 318.152 336.337 315.888C334.929 313.623 334.225 311.024 334.225 308.089C334.225 304.198 335.137 300.738 336.961 297.708C338.785 294.678 341.329 292.318 344.593 290.628C347.857 288.905 351.601 288.044 355.825 288.044C362.801 288.044 367.889 290.229 371.089 294.598L362.977 300.866C361.921 299.526 360.785 298.585 359.569 298.043C358.353 297.469 356.929 297.182 355.297 297.182C353.345 297.182 351.633 297.612 350.161 298.473C348.721 299.335 347.601 300.547 346.801 302.109C346.033 303.64 345.649 305.394 345.649 307.372C345.649 309.349 346.305 310.944 347.617 312.156C348.929 313.336 350.737 313.926 353.041 313.926C354.193 313.926 355.297 313.767 356.353 313.448L358.129 304.645ZM416.188 288.81L409.564 322.298H399.244L402.22 307.037L392.764 319.284H387.772L382.588 307.228L379.564 322.298H369.244L375.964 288.81H385.18L392.476 306.606L406.54 288.81H416.188ZM439.521 316.462H426.705L423.345 322.298H411.393L432.801 288.81H443.937L451.905 322.298H440.625L439.521 316.462ZM437.937 308.329L436.305 299.765L431.361 308.329H437.937ZM471.127 304.406H485.527L483.895 312.539H469.495L471.127 304.406ZM43.808 336.65L37.088 370.139H25.952L30.896 345.405H23.264L21.776 351.959C20.688 356.807 19.504 360.571 18.224 363.25C16.944 365.929 15.392 367.858 13.568 369.039C11.776 370.187 9.472 370.761 6.656 370.761C4.896 370.761 3.344 370.553 2 370.139L4.4 361.097C4.784 361.193 5.184 361.241 5.6 361.241C6.624 361.241 7.504 360.874 8.24 360.14C9.008 359.407 9.712 358.211 10.352 356.552C11.024 354.894 11.696 352.613 12.368 349.711L15.44 336.65H43.808ZM83.3428 336.65L64.7668 362.245C62.6227 365.147 60.3027 367.332 57.8068 368.799C55.3108 370.266 52.7028 371 49.9827 371C47.8068 371 45.5827 370.522 43.3107 369.565L46.9108 361.671C47.9668 361.958 48.9268 362.102 49.7907 362.102C50.8148 362.102 51.7268 361.894 52.5268 361.48C53.3588 361.065 54.1427 360.443 54.8787 359.614L46.8628 336.65H58.5748L62.4147 350.572L72.1588 336.65H83.3428ZM117.166 336.65L110.446 370.139H99.3099L101.422 359.662C99.4699 360.172 97.6299 360.427 95.9019 360.427C91.5499 360.427 88.2219 359.518 85.9179 357.7C83.6459 355.85 82.5099 353.235 82.5099 349.854C82.5099 348.834 82.6379 347.654 82.8939 346.314L84.8139 336.65H95.9499L94.0779 345.931C93.9179 346.824 93.8379 347.558 93.8379 348.132C93.8379 349.312 94.1419 350.173 94.7499 350.716C95.3899 351.226 96.3659 351.481 97.6779 351.481C99.8539 351.481 101.726 351.114 103.294 350.381L106.03 336.65H117.166ZM169.998 336.65L163.278 370.139H116.382L123.102 336.65H134.238L129.39 361.384H136.158L141.006 336.65H152.142L147.294 361.384H154.014L158.862 336.65H169.998ZM185.338 345.166L184.57 349.089H198.778L197.146 357.222H182.89L182.026 361.623H198.874L197.146 370.139H169.21L175.93 336.65H203.242L201.514 345.166H185.338ZM217.87 345.166L217.102 349.089H231.309L229.678 357.222H215.422L214.557 361.623H231.406L229.678 370.139H201.742L208.462 336.65H235.773L234.046 345.166H217.87ZM270.071 336.65C274.551 336.65 278.023 337.623 280.487 339.569C282.951 341.514 284.183 344.241 284.183 347.749C284.183 350.556 283.479 353.028 282.071 355.165C280.695 357.302 278.711 358.96 276.119 360.14C273.559 361.32 270.583 361.91 267.191 361.91H261.383L259.751 370.139H248.423L255.143 336.65H270.071ZM267.767 353.203C269.335 353.203 270.551 352.821 271.415 352.055C272.279 351.258 272.711 350.157 272.711 348.754C272.711 346.49 271.303 345.357 268.487 345.357H264.695L263.111 353.203H267.767ZM299.995 345.166L299.227 349.089H313.435L311.802 357.222H297.547L296.682 361.623H313.53L311.802 370.139H283.866L290.586 336.65H317.898L316.171 345.166H299.995ZM370.014 336.65L363.294 370.139H316.398L323.118 336.65H334.254L329.406 361.384H336.174L341.022 336.65H352.158L347.31 361.384H354.03L358.878 336.65H370.014ZM385.354 345.166L384.586 349.089H398.794L397.162 357.222H382.906L382.042 361.623H398.89L397.162 370.139H369.226L375.946 336.65H403.258L401.53 345.166H385.354ZM441.597 336.65L434.877 370.139H423.549L426.045 357.796H415.581L413.085 370.139H401.757L408.477 336.65H419.805L417.405 348.515H427.869L430.269 336.65H441.597ZM447.571 336.65H458.707L455.107 354.064L470.131 336.65H480.931L474.211 370.139H463.075L466.723 352.773L451.699 370.139H440.851L447.571 336.65ZM496.307 345.166L495.539 349.089H509.747L508.115 357.222H493.859L492.995 361.623H509.843L508.115 370.139H480.179L486.899 336.65H514.211L512.483 345.166H496.307Z"/>
</mask>
<path d="M63.5681 10.5203H53.5841L48.7361 35.2539H37.6001L42.4481 10.5203H32.7521L34.4801 1.76545H65.2961L63.5681 10.5203ZM83.7198 1.76545C88.1998 1.76545 91.6718 2.73821 94.1358 4.68373C96.5998 6.62926 97.8318 9.35618 97.8318 12.8645C97.8318 15.6711 97.1278 18.1429 95.7198 20.2798C94.3438 22.4167 92.3598 24.0752 89.7678 25.2552C87.2078 26.4353 84.2318 27.0253 80.8398 27.0253H75.0318L73.3998 35.2539H62.0718L68.7918 1.76545H83.7198ZM81.4158 18.3183C82.9838 18.3183 84.1998 17.9356 85.0638 17.1702C85.9278 16.3728 86.3598 15.2725 86.3598 13.8691C86.3598 11.6047 84.9518 10.4725 82.1358 10.4725H78.3438L76.7598 18.3183H81.4158ZM137.085 1.76545L118.509 27.3602C116.365 30.2626 114.045 32.4473 111.549 33.9144C109.053 35.3815 106.445 36.1151 103.725 36.1151C101.549 36.1151 99.3249 35.6367 97.0529 34.6799L100.653 26.7861C101.709 27.0732 102.669 27.2167 103.533 27.2167C104.557 27.2167 105.469 27.0094 106.269 26.5948C107.101 26.1802 107.885 25.5582 108.621 24.729L100.605 1.76545H112.317L116.157 15.6871L125.901 1.76545H137.085ZM139.485 1.76545H168.621L166.893 10.2811H148.893L148.125 14.1562H156.141C159.629 14.1562 162.317 14.9535 164.205 16.5482C166.125 18.1429 167.085 20.3914 167.085 23.2938C167.085 25.7177 166.413 27.8386 165.069 29.6566C163.725 31.4426 161.805 32.83 159.309 33.8187C156.813 34.7755 153.869 35.2539 150.477 35.2539H132.765L139.485 1.76545ZM151.293 27.3602C152.573 27.3602 153.581 27.0732 154.317 26.4991C155.085 25.925 155.469 25.1596 155.469 24.2027C155.469 22.7356 154.429 22.0021 152.349 22.0021H146.541L145.485 27.3602H151.293ZM193.545 29.4174H180.729L177.369 35.2539H165.417L186.825 1.76545H197.961L205.929 35.2539H194.649L193.545 29.4174ZM191.961 21.2845L190.329 12.721L185.385 21.2845H191.961ZM244.829 1.76545C249.309 1.76545 252.781 2.73821 255.245 4.68373C257.709 6.62926 258.941 9.35618 258.941 12.8645C258.941 15.6711 258.237 18.1429 256.829 20.2798C255.453 22.4167 253.469 24.0752 250.877 25.2552C248.317 26.4353 245.341 27.0253 241.949 27.0253H236.141L234.509 35.2539H223.181L229.901 1.76545H244.829ZM242.525 18.3183C244.093 18.3183 245.309 17.9356 246.173 17.1702C247.037 16.3728 247.469 15.2725 247.469 13.8691C247.469 11.6047 246.061 10.4725 243.245 10.4725H239.453L237.869 18.3183H242.525ZM294.144 12.7688C294.144 15.7349 293.344 18.3343 291.744 20.5668C290.176 22.7675 287.952 24.4101 285.072 25.4944L290.688 35.2539H278.928L274.176 26.834H271.392L269.712 35.2539H258.384L265.104 1.76545H280.176C284.592 1.76545 288.016 2.73821 290.448 4.68373C292.912 6.59736 294.144 9.29239 294.144 12.7688ZM282.672 13.8691C282.672 11.6047 281.264 10.4725 278.448 10.4725H274.656L273.072 18.3183H277.728C279.296 18.3183 280.512 17.9356 281.376 17.1702C282.24 16.3728 282.672 15.2725 282.672 13.8691ZM318.63 29.4174H305.814L302.454 35.2539H290.502L311.91 1.76545H323.046L331.014 35.2539H319.734L318.63 29.4174ZM317.046 21.2845L315.414 12.721L310.47 21.2845H317.046ZM358.129 17.6007H367.969L365.089 32.0486C363.297 33.3244 361.233 34.3131 358.897 35.0147C356.593 35.6845 354.113 36.0194 351.457 36.0194C348.033 36.0194 345.009 35.3975 342.385 34.1536C339.793 32.8779 337.777 31.1077 336.337 28.8433C334.929 26.5788 334.225 23.9795 334.225 21.0453C334.225 17.1542 335.137 13.6937 336.961 10.6638C338.785 7.63391 341.329 5.27377 344.593 3.5834C347.857 1.86113 351.601 1 355.825 1C362.801 1 367.889 3.18472 371.089 7.55417L362.977 13.8213C361.921 12.4818 360.785 11.5409 359.569 10.9987C358.353 10.4246 356.929 10.1376 355.297 10.1376C353.345 10.1376 351.633 10.5681 350.161 11.4293C348.721 12.2904 347.601 13.5024 346.801 15.0652C346.033 16.5961 345.649 18.3502 345.649 20.3276C345.649 22.3051 346.305 23.8998 347.617 25.1117C348.929 26.2918 350.737 26.8818 353.041 26.8818C354.193 26.8818 355.297 26.7224 356.353 26.4034L358.129 17.6007ZM416.188 1.76545L409.564 35.2539H399.244L402.22 19.9928L392.764 32.24H387.772L382.588 20.1841L379.564 35.2539H369.244L375.964 1.76545H385.18L392.476 19.5622L406.54 1.76545H416.188ZM439.521 29.4174H426.705L423.345 35.2539H411.393L432.801 1.76545H443.937L451.905 35.2539H440.625L439.521 29.4174ZM437.937 21.2845L436.305 12.721L431.361 21.2845H437.937ZM471.127 17.3615H485.527L483.895 25.4944H469.495L471.127 17.3615ZM43.808 49.6062L37.088 83.0947H25.952L30.896 58.361H23.264L21.776 64.9152C20.688 69.763 19.504 73.5265 18.224 76.2056C16.944 78.8847 15.392 80.8142 13.568 81.9943C11.776 83.1425 9.472 83.7166 6.656 83.7166C4.896 83.7166 3.344 83.5093 2 83.0947L4.4 74.0527C4.784 74.1484 5.184 74.1963 5.6 74.1963C6.624 74.1963 7.504 73.8295 8.24 73.0959C9.008 72.3624 9.712 71.1664 10.352 69.5079C11.024 67.8494 11.696 65.569 12.368 62.6667L15.44 49.6062H43.808ZM83.3428 49.6062L64.7668 75.2009C62.6227 78.1033 60.3027 80.288 57.8068 81.7551C55.3108 83.2222 52.7028 83.9558 49.9827 83.9558C47.8068 83.9558 45.5827 83.4774 43.3107 82.5206L46.9108 74.6268C47.9668 74.9139 48.9268 75.0574 49.7907 75.0574C50.8148 75.0574 51.7268 74.8501 52.5268 74.4355C53.3588 74.0209 54.1427 73.3989 54.8787 72.5697L46.8628 49.6062H58.5748L62.4147 63.5278L72.1588 49.6062H83.3428ZM117.166 49.6062L110.446 83.0947H99.3099L101.422 72.6175C99.4699 73.1278 97.6299 73.383 95.9019 73.383C91.5499 73.383 88.2219 72.474 85.9179 70.6561C83.6459 68.8062 82.5099 66.1909 82.5099 62.8102C82.5099 61.7896 82.6379 60.6095 82.8939 59.27L84.8139 49.6062H95.9499L94.0779 58.8872C93.9179 59.7803 93.8379 60.5138 93.8379 61.0879C93.8379 62.268 94.1419 63.1291 94.7499 63.6713C95.3899 64.1816 96.3659 64.4368 97.6779 64.4368C99.8539 64.4368 101.726 64.07 103.294 63.3364L106.03 49.6062H117.166ZM169.998 49.6062L163.278 83.0947H116.382L123.102 49.6062H134.238L129.39 74.3398H136.158L141.006 49.6062H152.142L147.294 74.3398H154.014L158.862 49.6062H169.998ZM185.338 58.1218L184.57 62.0447H198.778L197.146 70.1777H182.89L182.026 74.579H198.874L197.146 83.0947H169.21L175.93 49.6062H203.242L201.514 58.1218H185.338ZM217.87 58.1218L217.102 62.0447H231.309L229.678 70.1777H215.422L214.557 74.579H231.406L229.678 83.0947H201.742L208.462 49.6062H235.773L234.046 58.1218H217.87ZM270.071 49.6062C274.551 49.6062 278.023 50.5789 280.487 52.5244C282.951 54.47 284.183 57.1969 284.183 60.7052C284.183 63.5119 283.479 65.9836 282.071 68.1205C280.695 70.2574 278.711 71.9159 276.119 73.0959C273.559 74.276 270.583 74.866 267.191 74.866H261.383L259.751 83.0947H248.423L255.143 49.6062H270.071ZM267.767 66.159C269.335 66.159 270.551 65.7763 271.415 65.0109C272.279 64.2135 272.711 63.1132 272.711 61.7099C272.711 59.4454 271.303 58.3132 268.487 58.3132H264.695L263.111 66.159H267.767ZM299.995 58.1218L299.227 62.0447H313.435L311.802 70.1777H297.547L296.682 74.579H313.53L311.802 83.0947H283.866L290.586 49.6062H317.898L316.171 58.1218H299.995ZM370.014 49.6062L363.294 83.0947H316.398L323.118 49.6062H334.254L329.406 74.3398H336.174L341.022 49.6062H352.158L347.31 74.3398H354.03L358.878 49.6062H370.014ZM385.354 58.1218L384.586 62.0447H398.794L397.162 70.1777H382.906L382.042 74.579H398.89L397.162 83.0947H369.226L375.946 49.6062H403.258L401.53 58.1218H385.354ZM441.597 49.6062L434.877 83.0947H423.549L426.045 70.7517H415.581L413.085 83.0947H401.757L408.477 49.6062H419.805L417.405 61.4706H427.869L430.269 49.6062H441.597ZM447.571 49.6062H458.707L455.107 67.0202L470.131 49.6062H480.931L474.211 83.0947H463.075L466.723 65.7285L451.699 83.0947H440.851L447.571 49.6062ZM496.307 58.1218L495.539 62.0447H509.747L508.115 70.1777H493.859L492.995 74.579H509.843L508.115 83.0947H480.179L486.899 49.6062H514.211L512.483 58.1218H496.307ZM63.5681 106.202H53.5841L48.7361 130.935H37.6001L42.4481 106.202H32.7521L34.4801 97.4469H65.2961L63.5681 106.202ZM83.7198 97.4469C88.1998 97.4469 91.6718 98.4196 94.1358 100.365C96.5998 102.311 97.8318 105.038 97.8318 108.546C97.8318 111.353 97.1278 113.824 95.7198 115.961C94.3438 118.098 92.3598 119.757 89.7678 120.937C87.2078 122.117 84.2318 122.707 80.8398 122.707H75.0318L73.3998 130.935H62.0718L68.7918 97.4469H83.7198ZM81.4158 114C82.9838 114 84.1998 113.617 85.0638 112.852C85.9278 112.054 86.3598 110.954 86.3598 109.551C86.3598 107.286 84.9518 106.154 82.1358 106.154H78.3438L76.7598 114H81.4158ZM137.085 97.4469L118.509 123.042C116.365 125.944 114.045 128.129 111.549 129.596C109.053 131.063 106.445 131.796 103.725 131.796C101.549 131.796 99.3249 131.318 97.0529 130.361L100.653 122.468C101.709 122.755 102.669 122.898 103.533 122.898C104.557 122.898 105.469 122.691 106.269 122.276C107.101 121.862 107.885 121.24 108.621 120.41L100.605 97.4469H112.317L116.157 111.369L125.901 97.4469H137.085ZM139.485 97.4469H168.621L166.893 105.963H148.893L148.125 109.838H156.141C159.629 109.838 162.317 110.635 164.205 112.23C166.125 113.824 167.085 116.073 167.085 118.975C167.085 121.399 166.413 123.52 165.069 125.338C163.725 127.124 161.805 128.511 159.309 129.5C156.813 130.457 153.869 130.935 150.477 130.935H132.765L139.485 97.4469ZM151.293 123.042C152.573 123.042 153.581 122.755 154.317 122.181C155.085 121.606 155.469 120.841 155.469 119.884C155.469 118.417 154.429 117.683 152.349 117.683H146.541L145.485 123.042H151.293ZM193.545 125.099H180.729L177.369 130.935H165.417L186.825 97.4469H197.961L205.929 130.935H194.649L193.545 125.099ZM191.961 116.966L190.329 108.402L185.385 116.966H191.961ZM244.829 97.4469C249.309 97.4469 252.781 98.4196 255.245 100.365C257.709 102.311 258.941 105.038 258.941 108.546C258.941 111.353 258.237 113.824 256.829 115.961C255.453 118.098 253.469 119.757 250.877 120.937C248.317 122.117 245.341 122.707 241.949 122.707H236.141L234.509 130.935H223.181L229.901 97.4469H244.829ZM242.525 114C244.093 114 245.309 113.617 246.173 112.852C247.037 112.054 247.469 110.954 247.469 109.551C247.469 107.286 246.061 106.154 243.245 106.154H239.453L237.869 114H242.525ZM294.144 108.45C294.144 111.416 293.344 114.016 291.744 116.248C290.176 118.449 287.952 120.091 285.072 121.176L290.688 130.935H278.928L274.176 122.515H271.392L269.712 130.935H258.384L265.104 97.4469H280.176C284.592 97.4469 288.016 98.4196 290.448 100.365C292.912 102.279 294.144 104.974 294.144 108.45ZM282.672 109.551C282.672 107.286 281.264 106.154 278.448 106.154H274.656L273.072 114H277.728C279.296 114 280.512 113.617 281.376 112.852C282.24 112.054 282.672 110.954 282.672 109.551ZM318.63 125.099H305.814L302.454 130.935H290.502L311.91 97.4469H323.046L331.014 130.935H319.734L318.63 125.099ZM317.046 116.966L315.414 108.402L310.47 116.966H317.046ZM358.129 113.282H367.969L365.089 127.73C363.297 129.006 361.233 129.994 358.897 130.696C356.593 131.366 354.113 131.701 351.457 131.701C348.033 131.701 345.009 131.079 342.385 129.835C339.793 128.559 337.777 126.789 336.337 124.525C334.929 122.26 334.225 119.661 334.225 116.727C334.225 112.836 335.137 109.375 336.961 106.345C338.785 103.315 341.329 100.955 344.593 99.2648C347.857 97.5425 351.601 96.6814 355.825 96.6814C362.801 96.6814 367.889 98.8661 371.089 103.236L362.977 109.503C361.921 108.163 360.785 107.222 359.569 106.68C358.353 106.106 356.929 105.819 355.297 105.819C353.345 105.819 351.633 106.25 350.161 107.111C348.721 107.972 347.601 109.184 346.801 110.747C346.033 112.277 345.649 114.032 345.649 116.009C345.649 117.986 346.305 119.581 347.617 120.793C348.929 121.973 350.737 122.563 353.041 122.563C354.193 122.563 355.297 122.404 356.353 122.085L358.129 113.282ZM416.188 97.4469L409.564 130.935H399.244L402.22 115.674L392.764 127.921H387.772L382.588 115.866L379.564 130.935H369.244L375.964 97.4469H385.18L392.476 115.244L406.54 97.4469H416.188ZM439.521 125.099H426.705L423.345 130.935H411.393L432.801 97.4469H443.937L451.905 130.935H440.625L439.521 125.099ZM437.937 116.966L436.305 108.402L431.361 116.966H437.937ZM471.127 113.043H485.527L483.895 121.176H469.495L471.127 113.043ZM43.808 145.288L37.088 178.776H25.952L30.896 154.042H23.264L21.776 160.597C20.688 165.444 19.504 169.208 18.224 171.887C16.944 174.566 15.392 176.496 13.568 177.676C11.776 178.824 9.472 179.398 6.656 179.398C4.896 179.398 3.344 179.191 2 178.776L4.4 169.734C4.784 169.83 5.184 169.878 5.6 169.878C6.624 169.878 7.504 169.511 8.24 168.777C9.008 168.044 9.712 166.848 10.352 165.189C11.024 163.531 11.696 161.25 12.368 158.348L15.44 145.288H43.808ZM83.3428 145.288L64.7668 170.882C62.6227 173.785 60.3027 175.969 57.8068 177.437C55.3108 178.904 52.7028 179.637 49.9827 179.637C47.8068 179.637 45.5827 179.159 43.3107 178.202L46.9108 170.308C47.9668 170.595 48.9268 170.739 49.7907 170.739C50.8148 170.739 51.7268 170.532 52.5268 170.117C53.3588 169.702 54.1427 169.08 54.8787 168.251L46.8628 145.288H58.5748L62.4147 159.209L72.1588 145.288H83.3428ZM117.166 145.288L110.446 178.776H99.3099L101.422 168.299C99.4699 168.809 97.6299 169.064 95.9019 169.064C91.5499 169.064 88.2219 168.155 85.9179 166.337C83.6459 164.488 82.5099 161.872 82.5099 158.492C82.5099 157.471 82.6379 156.291 82.8939 154.951L84.8139 145.288H95.9499L94.0779 154.569C93.9179 155.462 93.8379 156.195 93.8379 156.769C93.8379 157.949 94.1419 158.811 94.7499 159.353C95.3899 159.863 96.3659 160.118 97.6779 160.118C99.8539 160.118 101.726 159.751 103.294 159.018L106.03 145.288H117.166ZM169.998 145.288L163.278 178.776H116.382L123.102 145.288H134.238L129.39 170.021H136.158L141.006 145.288H152.142L147.294 170.021H154.014L158.862 145.288H169.998ZM185.338 153.803L184.57 157.726H198.778L197.146 165.859H182.89L182.026 170.26H198.874L197.146 178.776H169.21L175.93 145.288H203.242L201.514 153.803H185.338ZM217.87 153.803L217.102 157.726H231.309L229.678 165.859H215.422L214.557 170.26H231.406L229.678 178.776H201.742L208.462 145.288H235.773L234.046 153.803H217.87ZM270.071 145.288C274.551 145.288 278.023 146.26 280.487 148.206C282.951 150.151 284.183 152.878 284.183 156.387C284.183 159.193 283.479 161.665 282.071 163.802C280.695 165.939 278.711 167.597 276.119 168.777C273.559 169.957 270.583 170.547 267.191 170.547H261.383L259.751 178.776H248.423L255.143 145.288H270.071ZM267.767 161.84C269.335 161.84 270.551 161.458 271.415 160.692C272.279 159.895 272.711 158.795 272.711 157.391C272.711 155.127 271.303 153.995 268.487 153.995H264.695L263.111 161.84H267.767ZM299.995 153.803L299.227 157.726H313.435L311.802 165.859H297.547L296.682 170.26H313.53L311.802 178.776H283.866L290.586 145.288H317.898L316.171 153.803H299.995ZM370.014 145.288L363.294 178.776H316.398L323.118 145.288H334.254L329.406 170.021H336.174L341.022 145.288H352.158L347.31 170.021H354.03L358.878 145.288H370.014ZM385.354 153.803L384.586 157.726H398.794L397.162 165.859H382.906L382.042 170.26H398.89L397.162 178.776H369.226L375.946 145.288H403.258L401.53 153.803H385.354ZM441.597 145.288L434.877 178.776H423.549L426.045 166.433H415.581L413.085 178.776H401.757L408.477 145.288H419.805L417.405 157.152H427.869L430.269 145.288H441.597ZM447.571 145.288H458.707L455.107 162.702L470.131 145.288H480.931L474.211 178.776H463.075L466.723 161.41L451.699 178.776H440.851L447.571 145.288ZM496.307 153.803L495.539 157.726H509.747L508.115 165.859H493.859L492.995 170.26H509.843L508.115 178.776H480.179L486.899 145.288H514.211L512.483 153.803H496.307ZM63.5681 201.883H53.5841L48.7361 226.617H37.6001L42.4481 201.883H32.7521L34.4801 193.128H65.2961L63.5681 201.883ZM83.7198 193.128C88.1998 193.128 91.6718 194.101 94.1358 196.047C96.5998 197.992 97.8318 200.719 97.8318 204.227C97.8318 207.034 97.1278 209.506 95.7198 211.643C94.3438 213.779 92.3598 215.438 89.7678 216.618C87.2078 217.798 84.2318 218.388 80.8398 218.388H75.0318L73.3998 226.617H62.0718L68.7918 193.128H83.7198ZM81.4158 209.681C82.9838 209.681 84.1998 209.298 85.0638 208.533C85.9278 207.736 86.3598 206.635 86.3598 205.232C86.3598 202.968 84.9518 201.835 82.1358 201.835H78.3438L76.7598 209.681H81.4158ZM137.085 193.128L118.509 218.723C116.365 221.625 114.045 223.81 111.549 225.277C109.053 226.744 106.445 227.478 103.725 227.478C101.549 227.478 99.3249 226.999 97.0529 226.043L100.653 218.149C101.709 218.436 102.669 218.58 103.533 218.58C104.557 218.58 105.469 218.372 106.269 217.958C107.101 217.543 107.885 216.921 108.621 216.092L100.605 193.128H112.317L116.157 207.05L125.901 193.128H137.085ZM139.485 193.128H168.621L166.893 201.644H148.893L148.125 205.519H156.141C159.629 205.519 162.317 206.316 164.205 207.911C166.125 209.506 167.085 211.754 167.085 214.657C167.085 217.081 166.413 219.201 165.069 221.019C163.725 222.805 161.805 224.193 159.309 225.182C156.813 226.138 153.869 226.617 150.477 226.617H132.765L139.485 193.128ZM151.293 218.723C152.573 218.723 153.581 218.436 154.317 217.862C155.085 217.288 155.469 216.522 155.469 215.566C155.469 214.098 154.429 213.365 152.349 213.365H146.541L145.485 218.723H151.293ZM193.545 220.78H180.729L177.369 226.617H165.417L186.825 193.128H197.961L205.929 226.617H194.649L193.545 220.78ZM191.961 212.647L190.329 204.084L185.385 212.647H191.961ZM244.829 193.128C249.309 193.128 252.781 194.101 255.245 196.047C257.709 197.992 258.941 200.719 258.941 204.227C258.941 207.034 258.237 209.506 256.829 211.643C255.453 213.779 253.469 215.438 250.877 216.618C248.317 217.798 245.341 218.388 241.949 218.388H236.141L234.509 226.617H223.181L229.901 193.128H244.829ZM242.525 209.681C244.093 209.681 245.309 209.298 246.173 208.533C247.037 207.736 247.469 206.635 247.469 205.232C247.469 202.968 246.061 201.835 243.245 201.835H239.453L237.869 209.681H242.525ZM294.144 204.132C294.144 207.098 293.344 209.697 291.744 211.93C290.176 214.13 287.952 215.773 285.072 216.857L290.688 226.617H278.928L274.176 218.197H271.392L269.712 226.617H258.384L265.104 193.128H280.176C284.592 193.128 288.016 194.101 290.448 196.047C292.912 197.96 294.144 200.655 294.144 204.132ZM282.672 205.232C282.672 202.968 281.264 201.835 278.448 201.835H274.656L273.072 209.681H277.728C279.296 209.681 280.512 209.298 281.376 208.533C282.24 207.736 282.672 206.635 282.672 205.232ZM318.63 220.78H305.814L302.454 226.617H290.502L311.91 193.128H323.046L331.014 226.617H319.734L318.63 220.78ZM317.046 212.647L315.414 204.084L310.47 212.647H317.046ZM358.129 208.964H367.969L365.089 223.411C363.297 224.687 361.233 225.676 358.897 226.378C356.593 227.047 354.113 227.382 351.457 227.382C348.033 227.382 345.009 226.76 342.385 225.516C339.793 224.241 337.777 222.471 336.337 220.206C334.929 217.942 334.225 215.342 334.225 212.408C334.225 208.517 335.137 205.057 336.961 202.027C338.785 198.997 341.329 196.637 344.593 194.946C347.857 193.224 351.601 192.363 355.825 192.363C362.801 192.363 367.889 194.548 371.089 198.917L362.977 205.184C361.921 203.845 360.785 202.904 359.569 202.362C358.353 201.787 356.929 201.5 355.297 201.5C353.345 201.5 351.633 201.931 350.161 202.792C348.721 203.653 347.601 204.865 346.801 206.428C346.033 207.959 345.649 209.713 345.649 211.69C345.649 213.668 346.305 215.263 347.617 216.475C348.929 217.655 350.737 218.245 353.041 218.245C354.193 218.245 355.297 218.085 356.353 217.766L358.129 208.964ZM416.188 193.128L409.564 226.617H399.244L402.22 211.356L392.764 223.603H387.772L382.588 211.547L379.564 226.617H369.244L375.964 193.128H385.18L392.476 210.925L406.54 193.128H416.188ZM439.521 220.78H426.705L423.345 226.617H411.393L432.801 193.128H443.937L451.905 226.617H440.625L439.521 220.78ZM437.937 212.647L436.305 204.084L431.361 212.647H437.937ZM471.127 208.724H485.527L483.895 216.857H469.495L471.127 208.724ZM43.808 240.969L37.088 274.457H25.952L30.896 249.724H23.264L21.776 256.278C20.688 261.126 19.504 264.889 18.224 267.568C16.944 270.247 15.392 272.177 13.568 273.357C11.776 274.505 9.472 275.079 6.656 275.079C4.896 275.079 3.344 274.872 2 274.457L4.4 265.416C4.784 265.511 5.184 265.559 5.6 265.559C6.624 265.559 7.504 265.192 8.24 264.459C9.008 263.725 9.712 262.529 10.352 260.871C11.024 259.212 11.696 256.932 12.368 254.029L15.44 240.969H43.808ZM83.3428 240.969L64.7668 266.564C62.6227 269.466 60.3027 271.651 57.8068 273.118C55.3108 274.585 52.7028 275.319 49.9827 275.319C47.8068 275.319 45.5827 274.84 43.3107 273.883L46.9108 265.99C47.9668 266.277 48.9268 266.42 49.7907 266.42C50.8148 266.42 51.7268 266.213 52.5268 265.798C53.3588 265.384 54.1427 264.762 54.8787 263.933L46.8628 240.969H58.5748L62.4147 254.891L72.1588 240.969H83.3428ZM117.166 240.969L110.446 274.457H99.3099L101.422 263.98C99.4699 264.491 97.6299 264.746 95.9019 264.746C91.5499 264.746 88.2219 263.837 85.9179 262.019C83.6459 260.169 82.5099 257.554 82.5099 254.173C82.5099 253.152 82.6379 251.972 82.8939 250.633L84.8139 240.969H95.9499L94.0779 250.25C93.9179 251.143 93.8379 251.877 93.8379 252.451C93.8379 253.631 94.1419 254.492 94.7499 255.034C95.3899 255.544 96.3659 255.8 97.6779 255.8C99.8539 255.8 101.726 255.433 103.294 254.699L106.03 240.969H117.166ZM169.998 240.969L163.278 274.457H116.382L123.102 240.969H134.238L129.39 265.703H136.158L141.006 240.969H152.142L147.294 265.703H154.014L158.862 240.969H169.998ZM185.338 249.485L184.57 253.408H198.778L197.146 261.54H182.89L182.026 265.942H198.874L197.146 274.457H169.21L175.93 240.969H203.242L201.514 249.485H185.338ZM217.87 249.485L217.102 253.408H231.309L229.678 261.54H215.422L214.557 265.942H231.406L229.678 274.457H201.742L208.462 240.969H235.773L234.046 249.485H217.87ZM270.071 240.969C274.551 240.969 278.023 241.942 280.487 243.887C282.951 245.833 284.183 248.56 284.183 252.068C284.183 254.875 283.479 257.346 282.071 259.483C280.695 261.62 278.711 263.279 276.119 264.459C273.559 265.639 270.583 266.229 267.191 266.229H261.383L259.751 274.457H248.423L255.143 240.969H270.071ZM267.767 257.522C269.335 257.522 270.551 257.139 271.415 256.374C272.279 255.576 272.711 254.476 272.711 253.073C272.711 250.808 271.303 249.676 268.487 249.676H264.695L263.111 257.522H267.767ZM299.995 249.485L299.227 253.408H313.435L311.802 261.54H297.547L296.682 265.942H313.53L311.802 274.457H283.866L290.586 240.969H317.898L316.171 249.485H299.995ZM370.014 240.969L363.294 274.457H316.398L323.118 240.969H334.254L329.406 265.703H336.174L341.022 240.969H352.158L347.31 265.703H354.03L358.878 240.969H370.014ZM385.354 249.485L384.586 253.408H398.794L397.162 261.54H382.906L382.042 265.942H398.89L397.162 274.457H369.226L375.946 240.969H403.258L401.53 249.485H385.354ZM441.597 240.969L434.877 274.457H423.549L426.045 262.115H415.581L413.085 274.457H401.757L408.477 240.969H419.805L417.405 252.833H427.869L430.269 240.969H441.597ZM447.571 240.969H458.707L455.107 258.383L470.131 240.969H480.931L474.211 274.457H463.075L466.723 257.091L451.699 274.457H440.851L447.571 240.969ZM496.307 249.485L495.539 253.408H509.747L508.115 261.54H493.859L492.995 265.942H509.843L508.115 274.457H480.179L486.899 240.969H514.211L512.483 249.485H496.307ZM63.5681 297.565H53.5841L48.7361 322.298H37.6001L42.4481 297.565H32.7521L34.4801 288.81H65.2961L63.5681 297.565ZM83.7198 288.81C88.1998 288.81 91.6718 289.782 94.1358 291.728C96.5998 293.673 97.8318 296.4 97.8318 299.909C97.8318 302.715 97.1278 305.187 95.7198 307.324C94.3438 309.461 92.3598 311.119 89.7678 312.299C87.2078 313.48 84.2318 314.07 80.8398 314.07H75.0318L73.3998 322.298H62.0718L68.7918 288.81H83.7198ZM81.4158 305.363C82.9838 305.363 84.1998 304.98 85.0638 304.214C85.9278 303.417 86.3598 302.317 86.3598 300.913C86.3598 298.649 84.9518 297.517 82.1358 297.517H78.3438L76.7598 305.363H81.4158ZM137.085 288.81L118.509 314.404C116.365 317.307 114.045 319.491 111.549 320.959C109.053 322.426 106.445 323.159 103.725 323.159C101.549 323.159 99.3249 322.681 97.0529 321.724L100.653 313.83C101.709 314.117 102.669 314.261 103.533 314.261C104.557 314.261 105.469 314.054 106.269 313.639C107.101 313.224 107.885 312.602 108.621 311.773L100.605 288.81H112.317L116.157 302.731L125.901 288.81H137.085ZM139.485 288.81H168.621L166.893 297.325H148.893L148.125 301.2H156.141C159.629 301.2 162.317 301.998 164.205 303.592C166.125 305.187 167.085 307.436 167.085 310.338C167.085 312.762 166.413 314.883 165.069 316.701C163.725 318.487 161.805 319.874 159.309 320.863C156.813 321.82 153.869 322.298 150.477 322.298H132.765L139.485 288.81ZM151.293 314.404C152.573 314.404 153.581 314.117 154.317 313.543C155.085 312.969 155.469 312.204 155.469 311.247C155.469 309.78 154.429 309.046 152.349 309.046H146.541L145.485 314.404H151.293ZM193.545 316.462H180.729L177.369 322.298H165.417L186.825 288.81H197.961L205.929 322.298H194.649L193.545 316.462ZM191.961 308.329L190.329 299.765L185.385 308.329H191.961ZM244.829 288.81C249.309 288.81 252.781 289.782 255.245 291.728C257.709 293.673 258.941 296.4 258.941 299.909C258.941 302.715 258.237 305.187 256.829 307.324C255.453 309.461 253.469 311.119 250.877 312.299C248.317 313.48 245.341 314.07 241.949 314.07H236.141L234.509 322.298H223.181L229.901 288.81H244.829ZM242.525 305.363C244.093 305.363 245.309 304.98 246.173 304.214C247.037 303.417 247.469 302.317 247.469 300.913C247.469 298.649 246.061 297.517 243.245 297.517H239.453L237.869 305.363H242.525ZM294.144 299.813C294.144 302.779 293.344 305.379 291.744 307.611C290.176 309.812 287.952 311.454 285.072 312.539L290.688 322.298H278.928L274.176 313.878H271.392L269.712 322.298H258.384L265.104 288.81H280.176C284.592 288.81 288.016 289.782 290.448 291.728C292.912 293.642 294.144 296.337 294.144 299.813ZM282.672 300.913C282.672 298.649 281.264 297.517 278.448 297.517H274.656L273.072 305.363H277.728C279.296 305.363 280.512 304.98 281.376 304.214C282.24 303.417 282.672 302.317 282.672 300.913ZM318.63 316.462H305.814L302.454 322.298H290.502L311.91 288.81H323.046L331.014 322.298H319.734L318.63 316.462ZM317.046 308.329L315.414 299.765L310.47 308.329H317.046ZM358.129 304.645H367.969L365.089 319.093C363.297 320.369 361.233 321.357 358.897 322.059C356.593 322.729 354.113 323.064 351.457 323.064C348.033 323.064 345.009 322.442 342.385 321.198C339.793 319.922 337.777 318.152 336.337 315.888C334.929 313.623 334.225 311.024 334.225 308.089C334.225 304.198 335.137 300.738 336.961 297.708C338.785 294.678 341.329 292.318 344.593 290.628C347.857 288.905 351.601 288.044 355.825 288.044C362.801 288.044 367.889 290.229 371.089 294.598L362.977 300.866C361.921 299.526 360.785 298.585 359.569 298.043C358.353 297.469 356.929 297.182 355.297 297.182C353.345 297.182 351.633 297.612 350.161 298.473C348.721 299.335 347.601 300.547 346.801 302.109C346.033 303.64 345.649 305.394 345.649 307.372C345.649 309.349 346.305 310.944 347.617 312.156C348.929 313.336 350.737 313.926 353.041 313.926C354.193 313.926 355.297 313.767 356.353 313.448L358.129 304.645ZM416.188 288.81L409.564 322.298H399.244L402.22 307.037L392.764 319.284H387.772L382.588 307.228L379.564 322.298H369.244L375.964 288.81H385.18L392.476 306.606L406.54 288.81H416.188ZM439.521 316.462H426.705L423.345 322.298H411.393L432.801 288.81H443.937L451.905 322.298H440.625L439.521 316.462ZM437.937 308.329L436.305 299.765L431.361 308.329H437.937ZM471.127 304.406H485.527L483.895 312.539H469.495L471.127 304.406ZM43.808 336.65L37.088 370.139H25.952L30.896 345.405H23.264L21.776 351.959C20.688 356.807 19.504 360.571 18.224 363.25C16.944 365.929 15.392 367.858 13.568 369.039C11.776 370.187 9.472 370.761 6.656 370.761C4.896 370.761 3.344 370.553 2 370.139L4.4 361.097C4.784 361.193 5.184 361.241 5.6 361.241C6.624 361.241 7.504 360.874 8.24 360.14C9.008 359.407 9.712 358.211 10.352 356.552C11.024 354.894 11.696 352.613 12.368 349.711L15.44 336.65H43.808ZM83.3428 336.65L64.7668 362.245C62.6227 365.147 60.3027 367.332 57.8068 368.799C55.3108 370.266 52.7028 371 49.9827 371C47.8068 371 45.5827 370.522 43.3107 369.565L46.9108 361.671C47.9668 361.958 48.9268 362.102 49.7907 362.102C50.8148 362.102 51.7268 361.894 52.5268 361.48C53.3588 361.065 54.1427 360.443 54.8787 359.614L46.8628 336.65H58.5748L62.4147 350.572L72.1588 336.65H83.3428ZM117.166 336.65L110.446 370.139H99.3099L101.422 359.662C99.4699 360.172 97.6299 360.427 95.9019 360.427C91.5499 360.427 88.2219 359.518 85.9179 357.7C83.6459 355.85 82.5099 353.235 82.5099 349.854C82.5099 348.834 82.6379 347.654 82.8939 346.314L84.8139 336.65H95.9499L94.0779 345.931C93.9179 346.824 93.8379 347.558 93.8379 348.132C93.8379 349.312 94.1419 350.173 94.7499 350.716C95.3899 351.226 96.3659 351.481 97.6779 351.481C99.8539 351.481 101.726 351.114 103.294 350.381L106.03 336.65H117.166ZM169.998 336.65L163.278 370.139H116.382L123.102 336.65H134.238L129.39 361.384H136.158L141.006 336.65H152.142L147.294 361.384H154.014L158.862 336.65H169.998ZM185.338 345.166L184.57 349.089H198.778L197.146 357.222H182.89L182.026 361.623H198.874L197.146 370.139H169.21L175.93 336.65H203.242L201.514 345.166H185.338ZM217.87 345.166L217.102 349.089H231.309L229.678 357.222H215.422L214.557 361.623H231.406L229.678 370.139H201.742L208.462 336.65H235.773L234.046 345.166H217.87ZM270.071 336.65C274.551 336.65 278.023 337.623 280.487 339.569C282.951 341.514 284.183 344.241 284.183 347.749C284.183 350.556 283.479 353.028 282.071 355.165C280.695 357.302 278.711 358.96 276.119 360.14C273.559 361.32 270.583 361.91 267.191 361.91H261.383L259.751 370.139H248.423L255.143 336.65H270.071ZM267.767 353.203C269.335 353.203 270.551 352.821 271.415 352.055C272.279 351.258 272.711 350.157 272.711 348.754C272.711 346.49 271.303 345.357 268.487 345.357H264.695L263.111 353.203H267.767ZM299.995 345.166L299.227 349.089H313.435L311.802 357.222H297.547L296.682 361.623H313.53L311.802 370.139H283.866L290.586 336.65H317.898L316.171 345.166H299.995ZM370.014 336.65L363.294 370.139H316.398L323.118 336.65H334.254L329.406 361.384H336.174L341.022 336.65H352.158L347.31 361.384H354.03L358.878 336.65H370.014ZM385.354 345.166L384.586 349.089H398.794L397.162 357.222H382.906L382.042 361.623H398.89L397.162 370.139H369.226L375.946 336.65H403.258L401.53 345.166H385.354ZM441.597 336.65L434.877 370.139H423.549L426.045 357.796H415.581L413.085 370.139H401.757L408.477 336.65H419.805L417.405 348.515H427.869L430.269 336.65H441.597ZM447.571 336.65H458.707L455.107 354.064L470.131 336.65H480.931L474.211 370.139H463.075L466.723 352.773L451.699 370.139H440.851L447.571 336.65ZM496.307 345.166L495.539 349.089H509.747L508.115 357.222H493.859L492.995 361.623H509.843L508.115 370.139H480.179L486.899 336.65H514.211L512.483 345.166H496.307Z" stroke="#B5B5B5" stroke-width="2" mask="url(#path-1-outside-1)"/>
</svg>
