<svg width="24" height="24" viewBox="0 0 24 24" fill="none" xmlns="http://www.w3.org/2000/svg">
<g clip-path="url(#clip0)">
<path d="M23.384 17.7016L20.4005 14.718C19.5779 13.8955 18.2394 13.8955 17.4169 14.718L16.0608 16.0742C15.4376 16.6973 14.4236 16.6971 13.8007 16.0744L7.92255 10.1912C7.29794 9.56663 7.29784 8.55568 7.92255 7.93097C8.14099 7.71254 8.76822 7.0853 9.27869 6.57483C10.0976 5.75593 10.1091 4.42163 9.2779 3.59053L6.29514 0.617157C5.47258 -0.205359 4.13415 -0.205359 3.31379 0.615001C2.69991 1.22353 2.50191 1.41984 2.22666 1.6927C-0.739593 4.65891 -0.739593 9.4853 2.22652 12.4514L11.5402 21.77C14.5134 24.7432 19.3256 24.7435 22.299 21.77L23.384 20.6851C24.2066 19.8625 24.2066 18.5241 23.384 17.7016ZM4.30614 1.61166C4.58031 1.33749 5.02637 1.33744 5.30143 1.61241L8.28419 4.58578C8.55902 4.86061 8.55902 5.30541 8.28419 5.58029L7.78689 6.07754L3.81142 2.10206L4.30614 1.61166ZM12.5349 20.7756L3.22116 11.457C0.926253 9.16205 0.800113 5.55854 2.83323 3.11292L6.79717 7.07686C5.75561 8.2576 5.79901 10.0568 6.92781 11.1856L12.8058 17.0685C12.8058 17.0685 12.8059 17.0686 12.8059 17.0687C13.9335 18.1963 15.7326 18.2425 16.9148 17.1995L20.8789 21.1636C18.441 23.1932 14.8456 23.0863 12.5349 20.7756ZM22.3896 19.6906L21.8923 20.1879L17.9142 16.2098L18.4114 15.7125C18.6856 15.4383 19.1317 15.4383 19.406 15.7125L22.3895 18.6961C22.6637 18.9703 22.6637 19.4164 22.3896 19.6906Z" fill="white"/>
</g>
<defs>
<clipPath id="clip0">
<rect width="24" height="24" fill="white"/>
</clipPath>
</defs>
</svg>
