<svg width="369" height="634" viewBox="0 0 369 634" fill="none" xmlns="http://www.w3.org/2000/svg">
<path d="M96.0747 1C83.221 31.6354 106.107 64.7558 139.293 87.1164C172.475 109.477 214.951 123.955 253.986 141.336C293.018 158.716 330.755 180.893 345.521 211.121C371.797 264.904 318.152 319.646 292.578 373.588C253.881 455.203 284.038 550.349 368.666 613.649" stroke="white" stroke-miterlimit="10"/>
<path d="M65.7073 7.32446C52.8536 37.9599 75.7425 71.0802 108.925 93.4409C142.108 115.801 184.586 130.28 223.618 147.66C262.651 165.04 300.388 187.217 315.154 217.446C341.43 271.229 287.785 325.97 262.21 379.913C223.513 461.529 253.67 556.674 338.299 619.974" stroke="white" stroke-miterlimit="10"/>
<path d="M35.3325 13.6489C22.4788 44.2844 45.3652 77.4047 78.5505 99.7654C111.736 122.126 154.211 136.604 193.244 153.985C232.276 171.365 270.013 193.542 284.779 223.772C311.055 277.557 257.41 332.297 231.836 386.239C193.139 467.853 223.295 563 307.924 626.3" stroke="white" stroke-miterlimit="10"/>
<path d="M4.96536 19.9734C-7.88841 50.6088 14.998 83.7292 48.1833 106.09C81.3686 128.45 123.844 142.929 162.876 160.309C201.909 177.689 239.646 199.866 254.412 230.095C280.688 283.879 227.043 338.619 201.468 392.561C162.771 474.176 192.928 569.324 277.557 632.623" stroke="white" stroke-miterlimit="10"/>
</svg>
