<svg width="101" height="100" viewBox="0 0 101 100" fill="none" xmlns="http://www.w3.org/2000/svg">
<path d="M94.8525 13.443L90.5793 9.68016L94.8525 5.91811C95.5171 5.33217 95.7444 4.41894 95.4324 3.59039C95.1188 2.76107 94.3444 2.22549 93.4587 2.22549H75.7753V1.4656C75.7753 0.656127 75.1192 0 74.3097 0C73.5002 0 72.8441 0.656127 72.8441 1.4656V21.2318L60.8072 27.7679C60.7408 27.2384 60.5821 26.7181 60.3311 26.2283L58.6351 22.9171C57.4709 20.6436 54.6739 19.7425 52.4019 20.906L51.0904 21.5774C49.9887 22.142 49.1732 23.1002 48.7932 24.2782C48.4133 25.4554 48.5147 26.7105 49.0793 27.8114L50.7753 31.1233C51.1713 31.8961 51.7565 32.508 52.4446 32.9368C51.5444 34.1491 51.1171 35.6399 50.6777 37.1886L50.3618 38.3071C50.1413 39.0861 50.5945 39.8963 51.3735 40.116C51.5062 40.1542 51.6405 40.1717 51.7725 40.1717C52.4118 40.1717 52.9993 39.7506 53.1824 39.1044L53.4983 37.9882C54.1407 35.723 54.5351 34.51 55.7909 33.8279L58.0423 32.6049L58.32 32.463C58.4123 32.4157 58.4986 32.3623 58.5863 32.3097L74.6324 23.5961C74.5309 25.6019 73.4514 27.497 71.6737 28.5766L61.239 34.9166C61.2268 34.9235 61.2146 34.9304 61.2032 34.938L57.9553 36.9109C57.2641 37.3313 57.0436 38.2331 57.464 38.9251C57.86 39.5774 58.6839 39.8093 59.3561 39.482L56.8918 46.9314L55.0905 47.6699L50.1924 49.6772L51.6039 44.6876C51.8236 43.9086 51.3712 43.0984 50.5922 42.8779C49.8125 42.6566 49.003 43.1106 48.7825 43.8895L46.5525 51.776C46.5235 51.8775 46.5044 51.9889 46.4998 52.0949L45.9162 62.8157C45.8986 63.2247 45.9856 63.9975 45.7964 64.3965L39.3145 78.0333H34.6041C31.8446 78.0333 29.6 80.2779 29.6 83.0366V87.2671C28.9683 86.978 28.2671 86.8162 27.5278 86.8162H15.5657C12.807 86.8162 10.5624 89.06 10.5624 91.8196V97.0686H7.04373C6.23425 97.0686 5.57812 97.7247 5.57812 98.5342C5.57812 99.3437 6.23425 99.9998 7.04373 99.9998H93.4571C94.2666 99.9998 94.9227 99.3437 94.9227 98.5342C94.9227 97.7247 94.2666 97.0686 93.4571 97.0686H89.6455V59.2917C89.6455 56.5329 87.4009 54.2884 84.6421 54.2884H75.7753V28.72C77.4003 26.5174 78.0023 23.6305 77.2477 20.887C77.1295 20.4559 76.8205 20.1019 76.4085 19.9272C76.2063 19.841 75.9897 19.8028 75.7753 19.8112V17.1356H93.4579C94.3444 17.1356 95.1188 16.6 95.4316 15.7715C95.7444 14.9429 95.5171 14.0289 94.8525 13.443ZM51.5833 25.1785C51.7229 24.7459 52.022 24.3934 52.4263 24.1867L53.7378 23.5153C53.985 23.3886 54.249 23.3284 54.5099 23.3284C55.1279 23.3284 55.7253 23.6663 56.0259 24.253L57.7226 27.5649C58.1186 28.3386 57.8623 29.2762 57.1581 29.75L56.6805 30.0086L55.6726 30.5251C54.8387 30.9524 53.8118 30.6213 53.3846 29.7866L51.6878 26.4755C51.481 26.0711 51.4437 25.6103 51.5833 25.1785ZM48.6383 78.4842C48.1401 78.2568 47.5985 78.1081 47.0293 78.0554L48.6383 75.9184V78.4842ZM55.5971 66.6747C56.3021 65.8301 56.4966 64.8436 56.6538 64.0486C56.6934 63.8594 57.4167 59.9089 57.4167 59.9089C57.4167 59.9089 58.1011 60.3354 58.1728 60.3659C58.2224 60.3881 58.2575 60.4369 58.2628 60.4941L59.0601 68.5988H54.1483L55.5971 66.6747ZM64.2641 58.5852L63.0266 68.5919H62.005L61.1803 60.2072C61.075 59.133 60.4173 58.1954 59.4538 57.7292L57.9798 56.7946L58.9617 51.3526C58.9617 51.3526 63.0983 56.2667 63.1944 56.3918C64.0505 57.5049 64.3434 57.9505 64.2641 58.5852ZM48.4331 65.6783C48.7291 64.7872 48.8665 63.88 48.8436 62.9576L49.3761 53.1798L56.1548 50.402L54.9227 57.2272C54.9188 57.2455 54.915 57.2646 54.9127 57.2829L53.8935 62.9264C53.7607 63.5108 53.6447 64.3973 53.2801 64.8787L43.3764 78.0333H42.56L48.4331 65.6783ZM13.4936 91.8188C13.4936 90.6767 14.4229 89.7474 15.5657 89.7474H27.5278C28.6707 89.7474 29.6008 90.6767 29.6008 91.8188V97.0686H13.4936V91.8188ZM32.5312 91.8188V83.0366C32.5312 81.8938 33.4612 80.9645 34.6041 80.9645H46.5662C47.7091 80.9645 48.6383 81.8938 48.6383 83.0366V97.0686H32.532V91.8188H32.5312ZM86.7143 59.2917V97.0686H70.6079V88.2811C70.6079 87.4716 69.9518 86.8155 69.1423 86.8155C68.3321 86.8155 67.6759 87.4716 67.6759 88.2811V97.0686H51.5695V73.6014C51.5695 72.4593 52.4988 71.53 53.6417 71.53H65.6038C66.7467 71.53 67.6759 72.4593 67.6759 73.6014V80.9485C67.6759 81.758 68.3321 82.4141 69.1415 82.4141C69.9518 82.4141 70.6071 81.758 70.6071 80.9485V59.2917C70.6071 58.1488 71.5372 57.2196 72.68 57.2196H74.2944C74.299 57.2196 74.3043 57.2203 74.3097 57.2203C74.3143 57.2203 74.3196 57.2196 74.3242 57.2196H84.6414C85.7843 57.2196 86.7143 58.1496 86.7143 59.2917ZM72.68 54.2884C69.9213 54.2884 67.6767 56.5329 67.6767 59.2917V69.0497C67.1518 68.8101 66.5796 68.6583 65.9776 68.6141L67.1732 58.9461C67.4081 57.0617 66.4468 55.8127 65.5176 54.6042C65.4192 54.4761 59.7223 47.7118 59.7223 47.7118L63.2173 37.1452L72.8441 31.2965V54.2884H72.68ZM75.7753 14.2036V5.15746H91.2805L87.9411 8.09782C87.4864 8.49837 87.2255 9.07515 87.2255 9.68092C87.2255 10.2867 87.4864 10.8635 87.9411 11.264L91.2805 14.2044H75.7753V14.2036Z" fill="url(#paint0_linear)"/>
<defs>
<linearGradient id="paint0_linear" x1="5.57812" y1="49.9999" x2="95.5703" y2="49.9999" gradientUnits="userSpaceOnUse">
<stop stop-color="#FA936E"/>
<stop offset="1" stop-color="#F0D76A"/>
</linearGradient>
</defs>
</svg>
