<svg width="1142" height="383" viewBox="0 0 1142 383" fill="none" xmlns="http://www.w3.org/2000/svg">
<path d="M7.68631 364.038C-1.19453 323.719 -5.35484 280.223 22.2859 244.289C58.5037 197.208 140.967 175.849 217.472 175.591C293.978 175.334 368.232 191.916 443.353 202.043C518.475 212.169 600.217 215.22 667.669 189.997C761.219 155.016 803.136 75.5487 889.454 32.4371C961.429 -3.51184 1062.06 -9.17374 1141.34 18.264" stroke="white" stroke-miterlimit="10"/>
<path d="M65.0859 368.659C56.6833 330.517 52.748 289.372 78.8967 255.379C113.157 210.841 191.166 190.635 263.539 190.392C335.912 190.15 406.154 205.836 477.218 215.415C548.281 224.994 625.608 227.88 689.416 204.02C777.912 170.929 817.566 95.7543 899.22 54.9713C967.307 20.9645 1062.5 15.6086 1137.5 41.5639" stroke="white" stroke-miterlimit="10"/>
<path d="M122.482 373.28C114.56 337.317 110.849 298.521 135.504 266.468C167.808 224.474 241.362 205.423 309.603 205.193C377.843 204.964 444.075 219.754 511.079 228.787C578.084 237.82 650.994 240.54 711.16 218.042C794.602 186.841 831.991 115.959 908.983 77.5056C973.182 45.441 1062.94 40.3912 1133.66 64.8639" stroke="white" stroke-miterlimit="10"/>
<path d="M179.881 377.901C172.438 344.115 168.953 307.668 192.115 277.558C222.463 238.106 291.562 220.209 355.67 219.994C419.778 219.78 481.998 233.673 544.944 242.159C607.892 250.644 676.385 253.2 732.907 232.065C811.296 202.754 846.421 136.164 918.749 100.04C979.06 69.9172 1063.38 65.1721 1129.82 88.1635" stroke="white" stroke-miterlimit="10"/>
<path d="M237.279 382.521C230.316 350.914 227.055 316.817 248.726 288.648C277.117 251.739 341.761 234.996 401.735 234.795C461.709 234.594 519.918 247.593 578.807 255.531C637.695 263.469 701.776 265.86 754.652 246.088C827.987 218.666 860.847 156.37 928.514 122.574C984.936 94.3936 1063.82 89.9545 1125.97 111.463" stroke="white" stroke-miterlimit="10"/>
</svg>
