<svg width="1064" height="272" viewBox="0 0 1064 272" fill="none" xmlns="http://www.w3.org/2000/svg">
<path d="M0.429688 30.9872C99.7575 30.924 198.218 54.5805 262.185 93.8761C317.658 127.954 346.229 171.482 393.814 208.613C441.4 245.743 521.764 278.309 606.447 270.152C664.59 264.553 710.807 240.572 738.149 213.452C765.492 186.332 777.332 155.898 791.972 126.265C806.612 96.633 825.209 66.5477 863.099 43.0636C911.129 13.2941 989.109 -2.77379 1063.57 1.75733" stroke="white" stroke-miterlimit="10"/>
<path d="M33.6992 29.1101C126.811 29.0514 219.108 51.227 279.071 88.0635C331.074 120.009 357.856 160.812 402.462 195.619C447.071 230.426 522.403 260.953 601.786 253.308C656.291 248.059 699.615 225.579 725.246 200.157C750.876 174.734 761.975 146.205 775.7 118.427C789.424 90.6489 806.857 62.4469 842.375 40.432C887.401 12.526 960.5 -2.5365 1030.3 1.71035" stroke="white" stroke-miterlimit="10"/>
<path d="M66.9688 27.2333C153.863 27.1792 239.999 47.8738 295.958 82.2512C344.487 112.064 369.483 150.143 411.112 182.626C452.741 215.109 523.045 243.598 597.128 236.464C647.994 231.565 688.427 210.586 712.345 186.861C736.263 163.136 746.622 136.51 759.43 110.587C772.237 84.6634 788.507 58.3439 821.653 37.799C863.672 11.7557 931.891 -2.30067 997.031 1.66282" stroke="white" stroke-miterlimit="10"/>
<path d="M100.234 25.3572C180.912 25.3066 260.885 44.5204 312.842 76.4386C357.901 104.118 381.105 139.474 419.758 169.633C458.41 199.792 523.682 226.243 592.467 219.619C639.695 215.071 677.234 195.593 699.442 173.565C721.65 151.537 731.268 126.817 743.159 102.748C755.05 78.6793 770.155 54.2432 800.93 35.1684C839.942 10.9886 903.283 -2.06243 963.761 1.6177" stroke="white" stroke-miterlimit="10"/>
<path d="M133.504 23.4801C207.966 23.4332 281.777 41.1669 329.73 70.6251C371.316 96.1721 392.734 128.803 428.407 156.638C464.081 184.474 524.325 208.886 587.809 202.772C631.396 198.574 666.043 180.598 686.541 160.267C707.039 139.936 715.915 117.12 726.89 94.906C737.865 72.6917 751.807 50.138 780.21 32.5333C816.217 10.217 874.676 -1.82868 930.493 1.56718" stroke="white" stroke-miterlimit="10"/>
</svg>
