<svg width="91" height="90" viewBox="0 0 91 90" fill="none" xmlns="http://www.w3.org/2000/svg">
<g clip-path="url(#clip0)">
<path d="M87.6875 65.3901C88.6583 65.3901 89.4453 64.6031 89.4453 63.6323C89.4453 62.6615 88.6583 61.8745 87.6875 61.8745C86.7167 61.8745 85.9297 62.6615 85.9297 63.6323C85.9297 64.6031 86.7167 65.3901 87.6875 65.3901Z" fill="url(#paint0_linear)"/>
<path d="M70.1094 61.8745C71.0802 61.8745 71.8672 61.0875 71.8672 60.1167C71.8672 59.1459 71.0802 58.3589 70.1094 58.3589C69.1386 58.3589 68.3516 59.1459 68.3516 60.1167C68.3516 61.0875 69.1386 61.8745 70.1094 61.8745Z" fill="url(#paint1_linear)"/>
<path d="M38.4688 68.906C39.4396 68.906 40.2266 68.119 40.2266 67.1482C40.2266 66.1774 39.4396 65.3904 38.4688 65.3904C37.4979 65.3904 36.7109 66.1774 36.7109 67.1482C36.7109 68.119 37.4979 68.906 38.4688 68.906Z" fill="url(#paint2_linear)"/>
<path d="M88.4066 86.4108C87.5286 86.5813 86.1827 86.6102 84.6478 84.9017C83.6203 83.7578 82.1654 83.1016 80.6558 83.1016C79.1462 83.1016 77.6912 83.7576 76.6631 84.9024C75.7084 85.9666 74.7146 86.484 73.6246 86.484C72.5346 86.484 71.5407 85.9666 70.5853 84.9017C69.5579 83.7578 68.103 83.1016 66.5934 83.1016C65.0838 83.1016 63.6288 83.7576 62.6007 84.9024C61.646 85.9666 60.6522 86.484 59.5622 86.484C58.4721 86.484 57.4783 85.9666 56.5229 84.9017C55.4955 83.7578 54.0405 83.1016 52.5309 83.1016C51.0213 83.1016 49.5664 83.7576 48.5383 84.9024C47.5836 85.9666 46.5897 86.484 45.4997 86.484C44.4097 86.484 43.4159 85.9666 42.4605 84.9017C41.4331 83.7578 39.9781 83.1016 38.4685 83.1016C36.9589 83.1016 35.504 83.7576 34.4759 84.9024C33.7697 85.6896 32.4477 86.484 31.0858 86.484C29.4649 86.484 28.2979 85.3779 27.8707 84.9017C26.8433 83.7578 25.3884 83.1016 23.8788 83.1016C22.3692 83.1016 20.9142 83.7576 19.8861 84.9024C18.9314 85.9666 17.9376 86.484 16.8476 86.484C15.2267 86.484 14.0597 85.3779 13.6325 84.9017C12.6051 83.7578 11.118 83.1016 9.55268 83.1016C7.98736 83.1016 6.50026 83.7576 5.47212 84.9024C5.04568 85.3779 3.87867 86.484 2.2578 86.484C1.28714 86.484 0.5 87.2711 0.5 88.2418C0.5 89.2124 1.28714 89.9996 2.2578 89.9996C4.39634 89.9996 6.5217 88.9975 8.08861 87.2505C8.45019 86.848 8.98386 86.617 9.55268 86.617C10.1215 86.617 10.6552 86.8478 11.0161 87.2498C12.5837 88.9975 14.709 89.9996 16.8476 89.9996C18.9339 89.9996 20.8896 89.0488 22.5026 87.2505C22.8694 86.8422 23.3581 86.617 23.8788 86.617C24.3994 86.617 24.8881 86.842 25.2542 87.2498C26.8219 88.9973 28.9472 89.9996 31.0858 89.9996C33.2698 89.9996 35.5717 88.946 37.0923 87.2505C37.4592 86.8422 37.9479 86.617 38.4685 86.617C38.9892 86.617 39.4779 86.842 39.844 87.2498C41.4577 89.0486 43.4134 89.9996 45.4997 89.9996C47.5861 89.9996 49.5418 89.0488 51.1548 87.2505C51.5216 86.8422 52.0103 86.617 52.5309 86.617C53.0516 86.617 53.5403 86.842 53.9064 87.2498C55.5201 89.0486 57.4758 89.9996 59.5622 89.9996C61.6485 89.9996 63.6042 89.0488 65.2172 87.2505C65.584 86.8422 66.0727 86.617 66.5934 86.617C67.114 86.617 67.6027 86.842 67.9688 87.2498C69.5825 89.0486 71.5382 89.9996 73.6246 89.9996C75.7109 89.9996 77.6666 89.0488 79.2796 87.2505C79.6464 86.8422 80.1351 86.617 80.6558 86.617C81.1764 86.617 81.6651 86.842 82.0321 87.2507C83.9281 89.361 86.3377 90.394 89.0767 89.8618C90.0296 89.6767 90.6522 88.7542 90.4671 87.8011C90.2822 86.8485 89.3595 86.2261 88.4066 86.4108Z" fill="url(#paint3_linear)"/>
<path d="M84.1718 40.781H77.1405C76.4746 40.781 75.8661 41.1572 75.5683 41.7527C75.2707 42.3483 75.3349 43.0607 75.7343 43.5935L79.952 49.2178C80.9442 50.539 82.5217 51.3279 84.1718 51.3279C87.0796 51.3279 89.4452 48.9622 89.4452 46.0544C89.4452 43.1467 87.0796 40.781 84.1718 40.781ZM84.1718 47.8123C83.6133 47.8123 83.0999 47.5551 82.7638 47.1075L80.656 44.2966H84.1718C85.141 44.2966 85.9296 45.0852 85.9296 46.0544C85.9296 47.0237 85.141 47.8123 84.1718 47.8123Z" fill="url(#paint4_linear)"/>
<path d="M2.25781 39.7263C3.22863 39.7263 4.01562 38.9393 4.01562 37.9685C4.01562 36.9977 3.22863 36.2107 2.25781 36.2107C1.287 36.2107 0.5 36.9977 0.5 37.9685C0.5 38.9393 1.287 39.7263 2.25781 39.7263Z" fill="url(#paint5_linear)"/>
<path d="M88.4189 75.7806C87.5037 75.9515 86.6583 75.7927 85.8566 75.2997C85.9039 74.9286 85.9292 74.5544 85.9292 74.1793C85.9292 69.9349 82.9049 66.3838 78.898 65.5671V63.6324C78.898 49.0937 67.0697 37.2654 52.5309 37.2654H50.7731V24.9608C50.7731 23.99 49.986 23.203 49.0153 23.203H45.4997C43.2081 23.203 41.2531 24.6723 40.5276 26.7186H25.3342C24.6086 24.6727 22.6548 23.203 20.3632 23.203H18.6054V10.5468H23.8788C24.8494 10.5468 25.6366 9.75985 25.6366 8.78901V1.7578C25.6366 0.786968 24.8494 0 23.8788 0H2.2578C1.28714 0 0.5 0.786968 0.5 1.7578V30.0584C0.5 31.0293 1.28714 31.8162 2.2578 31.8162C3.22846 31.8162 4.0156 31.0293 4.0156 30.0584V10.5468H15.0898V75.4011C14.3887 75.0392 13.8829 74.5456 13.6331 74.2675C12.6056 73.1221 11.1184 72.4654 9.55268 72.4654C7.98701 72.4654 6.49973 73.1223 5.473 74.2668C5.22269 74.5454 4.71732 75.0409 4.0156 75.403V45.8786C4.0156 44.9078 3.22846 44.1208 2.2578 44.1208C1.28714 44.1208 0.5 44.9078 0.5 45.8786V77.6052C0.5 78.576 1.28714 79.363 2.2578 79.363C4.39494 79.363 6.52012 78.3618 8.08914 76.6152C8.45089 76.2122 8.98421 75.981 9.55268 75.981C10.1212 75.981 10.6546 76.2122 11.0169 76.6161C12.5852 78.362 14.7104 79.363 16.8476 79.363C18.9327 79.363 20.888 78.4131 22.5031 76.6152C22.8701 76.2062 23.3586 75.981 23.8788 75.981C24.3989 75.981 24.8874 76.2062 25.2551 76.6161C26.8234 78.362 28.9486 79.363 31.0858 79.363C33.2686 79.363 35.5701 78.3104 37.0929 76.6152C37.4599 76.2062 37.9484 75.981 38.4685 75.981C38.9887 75.981 39.4772 76.2062 39.8449 76.6161C41.4593 78.4133 43.4146 79.363 45.4997 79.363C47.7383 79.363 49.6626 78.2834 51.1553 76.6152C51.5223 76.2062 52.0108 75.981 52.5309 75.981C53.0511 75.981 53.5396 76.2062 53.9073 76.6161C55.5217 78.4133 57.4771 79.363 59.5622 79.363C61.8201 79.363 63.7053 78.2915 65.2177 76.6152C65.5847 76.2062 66.0732 75.981 66.5934 75.981C67.1135 75.981 67.602 76.2062 67.9724 76.6189C68.3067 76.9895 68.6361 77.3078 68.9711 77.5861C68.9861 77.5987 69.0012 77.611 69.0165 77.6231C70.4081 78.7771 71.9578 79.363 73.6246 79.363C75.7097 79.363 77.6651 78.4131 79.2801 76.6152C79.6471 76.2062 80.1357 75.981 80.6558 75.981C81.1759 75.981 81.6644 76.2062 82.0321 76.6159C83.5212 78.2741 85.4504 79.3635 87.7146 79.3635C88.159 79.3635 88.6097 79.3214 89.0644 79.2365C90.0187 79.0582 90.6478 78.1403 90.4696 77.1858C90.2913 76.2317 89.3738 75.6027 88.4189 75.7806ZM25.6366 30.2342H40.2263V42.5388C40.2263 43.5097 41.0135 44.2966 41.9841 44.2966C42.9548 44.2966 43.7419 43.5097 43.7419 42.5388V28.4764C43.7419 27.5071 44.5305 26.7186 45.4997 26.7186H47.2575V51.3278H45.4997C44.5305 51.3278 43.7419 50.5393 43.7419 49.57C43.7419 48.5992 42.9548 47.8122 41.9841 47.8122H25.6366V30.2342ZM20.3632 26.7186C21.3324 26.7186 22.121 27.5071 22.121 28.4764V49.57C22.121 50.5393 21.3324 51.3278 20.3632 51.3278H18.6054V26.7186H20.3632ZM4.0156 7.03121V3.5156H22.121V7.03121C20.5694 7.03121 6.21708 7.03121 4.0156 7.03121ZM43.7419 70.6637C43.7419 72.5582 44.35 74.3624 45.434 75.8455C44.3702 75.8249 43.3965 75.309 42.461 74.2675C41.4336 73.1221 39.9785 72.4654 38.4685 72.4654C36.9586 72.4654 35.5035 73.1223 34.4767 74.2668C33.7699 75.0536 32.4474 75.8476 31.0858 75.8476C29.4654 75.8476 28.2975 74.7421 27.8713 74.2677C26.8438 73.1223 25.3887 72.4656 23.8788 72.4656C22.3688 72.4656 20.9137 73.1225 19.887 74.267C19.4688 74.7326 19.0432 75.0933 18.6054 75.3519V54.8434H20.3632C22.6546 54.8434 24.6086 53.3737 25.3342 51.3278H40.5276C41.2531 53.3741 43.2081 54.8434 45.4997 54.8434H49.0153C49.986 54.8434 50.7731 54.0565 50.7731 53.0856V51.6302C52.819 52.3558 54.2887 54.3096 54.2887 56.6012V62.0518C53.7127 61.9346 53.1235 61.8746 52.5309 61.8746C47.6847 61.8746 43.7419 65.8174 43.7419 70.6637ZM80.6558 72.4654C79.1458 72.4654 77.6907 73.1223 76.664 74.2668C75.7084 75.3304 74.7142 75.8476 73.6246 75.8476C73.0116 75.8476 72.4324 75.6818 71.8668 75.3457V67.148C71.8668 66.1772 71.0796 65.3903 70.109 65.3903C69.1383 65.3903 68.3512 66.1772 68.3512 67.148V72.7704C67.7896 72.5717 67.1961 72.4654 66.5934 72.4654C65.9906 72.4654 65.397 72.5718 64.8356 72.7702V56.6012C64.8356 55.6304 64.0484 54.8434 63.0778 54.8434C62.1071 54.8434 61.32 55.6304 61.32 56.6012V75.3464C60.7564 75.6813 60.1763 75.8474 59.5622 75.8474C58.4725 75.8474 57.4783 75.3304 56.5234 74.2675C55.496 73.1221 54.0409 72.4654 52.5309 72.4654C51.0563 72.4654 49.6351 73.0933 48.611 74.1909C47.7487 73.2336 47.2575 71.9846 47.2575 70.6637C47.2575 67.7559 49.6232 65.3903 52.5309 65.3903C53.4582 65.3903 54.3698 65.6339 55.1666 66.0946C55.7108 66.4092 56.3811 66.4094 56.9249 66.0955C57.4691 65.7815 57.8044 65.2011 57.8044 64.5729V56.6012C57.8044 52.3568 54.7801 48.8057 50.7731 47.9891V40.781H52.5309C65.1314 40.781 75.3824 51.0322 75.3824 63.6324V67.148C75.3824 68.1189 76.1695 68.9059 77.1402 68.9059C79.5345 68.9059 81.5598 70.5104 82.2011 72.7002C81.7029 72.5471 81.1829 72.4654 80.6558 72.4654Z" fill="url(#paint6_linear)"/>
</g>
<defs>
<linearGradient id="paint0_linear" x1="85.9297" y1="63.6323" x2="89.4453" y2="63.6323" gradientUnits="userSpaceOnUse">
<stop stop-color="#FA936E"/>
<stop offset="1" stop-color="#F0D76A"/>
</linearGradient>
<linearGradient id="paint1_linear" x1="68.3516" y1="60.1167" x2="71.8672" y2="60.1167" gradientUnits="userSpaceOnUse">
<stop stop-color="#FA936E"/>
<stop offset="1" stop-color="#F0D76A"/>
</linearGradient>
<linearGradient id="paint2_linear" x1="36.7109" y1="67.1482" x2="40.2266" y2="67.1482" gradientUnits="userSpaceOnUse">
<stop stop-color="#FA936E"/>
<stop offset="1" stop-color="#F0D76A"/>
</linearGradient>
<linearGradient id="paint3_linear" x1="0.5" y1="86.5508" x2="90.4997" y2="86.5508" gradientUnits="userSpaceOnUse">
<stop stop-color="#FA936E"/>
<stop offset="1" stop-color="#F0D76A"/>
</linearGradient>
<linearGradient id="paint4_linear" x1="75.3828" y1="46.0544" x2="89.4452" y2="46.0544" gradientUnits="userSpaceOnUse">
<stop stop-color="#FA936E"/>
<stop offset="1" stop-color="#F0D76A"/>
</linearGradient>
<linearGradient id="paint5_linear" x1="0.5" y1="37.9685" x2="4.01562" y2="37.9685" gradientUnits="userSpaceOnUse">
<stop stop-color="#FA936E"/>
<stop offset="1" stop-color="#F0D76A"/>
</linearGradient>
<linearGradient id="paint6_linear" x1="0.5" y1="39.6818" x2="90.4998" y2="39.6818" gradientUnits="userSpaceOnUse">
<stop stop-color="#FA936E"/>
<stop offset="1" stop-color="#F0D76A"/>
</linearGradient>
<clipPath id="clip0">
<rect width="90" height="90" fill="white" transform="translate(0.5)"/>
</clipPath>
</defs>
</svg>
