<svg width="687" height="528" viewBox="0 0 687 528" fill="none" xmlns="http://www.w3.org/2000/svg">
<path d="M73.1836 1C79.6758 32.5625 120.29 56.4266 163.902 67.5929C207.515 78.7592 254.923 80.1366 300.914 85.1239C346.904 90.1112 394.566 99.8423 426.041 123.33C482.046 165.121 465.634 230.074 474.379 286.468C487.612 371.795 571.78 450.278 686.736 484.485" stroke="white" stroke-miterlimit="10"/>
<path d="M49.207 15.2451C55.6992 46.8076 96.3136 70.6718 139.926 81.838C183.538 93.0043 230.947 94.3817 276.937 99.369C322.927 104.356 370.589 114.087 402.065 137.575C458.07 179.366 441.658 244.319 450.403 300.713C463.635 386.039 547.803 464.522 662.76 498.73" stroke="white" stroke-miterlimit="10"/>
<path d="M25.2344 29.4905C31.7265 61.0529 72.341 84.9171 115.953 96.0834C159.565 107.25 206.974 108.627 252.964 113.614C298.955 118.602 346.617 128.333 378.092 151.82C434.097 193.611 417.685 258.564 426.43 314.958C439.663 400.284 523.828 478.769 638.787 512.976" stroke="white" stroke-miterlimit="10"/>
<path d="M1.26172 43.7358C7.75388 75.2983 48.3681 99.1625 91.9803 110.329C135.592 121.495 183.001 122.872 228.992 127.86C274.982 132.847 322.644 142.578 354.119 166.066C410.124 207.857 393.712 272.809 402.457 329.203C415.69 414.53 499.855 493.012 614.814 527.221" stroke="white" stroke-miterlimit="10"/>
</svg>
